<?xml version="1.0" encoding="utf-8"?>
<!-- Generator: Adobe Illustrator 19.2.0, SVG Export Plug-In . SVG Version: 6.00 Build 0)  -->
<svg version="1.1" xmlns="http://www.w3.org/2000/svg" xmlns:xlink="http://www.w3.org/1999/xlink" x="0px" y="0px"
	 viewBox="0 0 64 64" style="enable-background:new 0 0 64 64;" xml:space="preserve">
<style type="text/css">
	.st0{fill:none;stroke:#1C1C1C;stroke-width:2;stroke-miterlimit:10;}
	.st1{fill:none;stroke:#1C1C1C;stroke-width:2;stroke-linecap:round;stroke-miterlimit:10;}
	.st2{fill:#1C1C1C;}
	.st3{fill:none;stroke:#1C1C1C;stroke-width:2;stroke-linecap:round;stroke-linejoin:round;stroke-miterlimit:10;}
	.st4{fill:none;stroke:#1C1C1C;stroke-width:2;stroke-linecap:round;stroke-miterlimit:10;stroke-dasharray:6;}
	.st5{fill:none;stroke:#1C1C1C;stroke-linecap:round;stroke-miterlimit:10;}
	.st6{fill:none;stroke:#1C1C1C;stroke-linecap:round;stroke-miterlimit:10;stroke-dasharray:4;}
	.st7{fill:none;stroke:#1C1C1C;stroke-width:1.5;stroke-linecap:round;stroke-miterlimit:10;}
	.st8{fill:none;stroke:#1C1C1C;stroke-width:4;stroke-linecap:round;stroke-miterlimit:10;}
	.st9{fill:none;stroke:#1C1C1C;stroke-width:5;stroke-linecap:round;stroke-miterlimit:10;}
	.st10{fill:none;stroke:#161616;stroke-width:2;stroke-linecap:round;stroke-linejoin:round;stroke-miterlimit:10;}
	.st11{fill:none;stroke:#000000;stroke-miterlimit:10;}
</style>
<g id="Designs">
	<g>
		<g>
			<path class="st2" d="M60.1,10c1.1,0,1.9,0.6,1.9,1.9V52c0,1.4-0.9,2-2,2H4c-1.1,0-2-0.6-2-2V11.9C2,10.6,2.8,10,3.9,10H60.1
				 M60.1,8H3.9C1.6,8,0,9.6,0,11.9V52c0,2.3,1.7,4,4,4h56c2.3,0,4-1.7,4-4V11.9C64,9.6,62.4,8,60.1,8L60.1,8z"/>
		</g>
		<g>
			<path class="st1" d="M15,17c0,2.2-1.8,4-4,4s-4-1.8-4-4"/>
			<path class="st1" d="M23,17c0,2.2-1.8,4-4,4s-4-1.8-4-4"/>
			<path class="st1" d="M31,17c0,2.2-1.8,4-4,4s-4-1.8-4-4"/>
			<path class="st1" d="M39,17c0,2.2-1.8,4-4,4s-4-1.8-4-4"/>
		</g>
		<line class="st1" x1="55" y1="45" x2="51" y2="49"/>
		<line class="st1" x1="55" y1="39" x2="45" y2="49"/>
		<g>
			<path class="st2" d="M51,16c1.7,0,3,1.3,3,3s-1.3,3-3,3s-3-1.3-3-3S49.6,16,51,16 M51,14c-2.7,0-5,2.3-5,5c0,2.8,2.2,5,5,5
				s5-2.2,5-5S53.8,14,51,14L51,14z"/>
		</g>
		<g>
			<path class="st2" d="M44,28c1.1,0,2,0.9,2,2s-0.9,2-2,2s-2-0.9-2-2S42.9,28,44,28 M44,26c-2.2,0-4,1.8-4,4s1.8,4,4,4s4-1.8,4-4
				S46.2,26,44,26L44,26z"/>
		</g>
		<g>
			<path class="st3" d="M17,37l-8-3l2,4c0.7,1.4,0.7,2.5,0,4l-2,4l8-3"/>
			<path class="st1" d="M39,40c0,3.9-4.9,7-11,7s-11-3.1-11-7s4.9-7,11-7S39,36.1,39,40z"/>
			<line class="st3" x1="30" y1="38" x2="32" y2="38"/>
		</g>
	</g>
</g>
<g id="Guides">
</g>
</svg>
