<?xml version="1.0" encoding="utf-8"?>
<!-- Generator: Adobe Illustrator 19.2.0, SVG Export Plug-In . SVG Version: 6.00 Build 0)  -->
<svg version="1.1" xmlns="http://www.w3.org/2000/svg" xmlns:xlink="http://www.w3.org/1999/xlink" x="0px" y="0px"
	 viewBox="0 0 64 64" style="enable-background:new 0 0 64 64;" xml:space="preserve">
<style type="text/css">
	.st0{fill:none;stroke:#1C1C1C;stroke-width:2;stroke-miterlimit:10;}
	.st1{fill:none;stroke:#1C1C1C;stroke-width:2;stroke-linecap:round;stroke-miterlimit:10;}
	.st2{fill:#1C1C1C;}
	.st3{fill:none;stroke:#1C1C1C;stroke-width:2;stroke-linecap:round;stroke-linejoin:round;stroke-miterlimit:10;}
	.st4{fill:none;stroke:#1C1C1C;stroke-width:2;stroke-linecap:round;stroke-miterlimit:10;stroke-dasharray:6;}
	.st5{fill:none;stroke:#1C1C1C;stroke-linecap:round;stroke-miterlimit:10;}
	.st6{fill:none;stroke:#1C1C1C;stroke-linecap:round;stroke-miterlimit:10;stroke-dasharray:4;}
	.st7{fill:none;stroke:#1C1C1C;stroke-width:1.5;stroke-linecap:round;stroke-miterlimit:10;}
	.st8{fill:none;stroke:#1C1C1C;stroke-width:4;stroke-linecap:round;stroke-miterlimit:10;}
	.st9{fill:none;stroke:#1C1C1C;stroke-width:5;stroke-linecap:round;stroke-miterlimit:10;}
	.st10{fill:none;stroke:#161616;stroke-width:2;stroke-linecap:round;stroke-linejoin:round;stroke-miterlimit:10;}
	.st11{fill:none;stroke:#000000;stroke-miterlimit:10;}
</style>
<g id="Designs">
	<line class="st1" x1="3" y1="22" x2="3" y2="59"/>
	<line class="st1" x1="32" y1="22" x2="32" y2="59"/>
	<line class="st1" x1="47" y1="22" x2="47" y2="59"/>
	<line class="st1" x1="61" y1="22" x2="61" y2="59"/>
	<line class="st1" x1="1" y1="21" x2="63" y2="21"/>
	<line class="st1" x1="1" y1="59" x2="63" y2="59"/>
	<path class="st1" d="M9,21C9,21,8.1,3,24,3"/>
	<g>
		<path class="st2" d="M28,2c1.1,0,2,0.9,2,2c0,1.1-0.9,2-2,2s-2-0.9-2-2C26,2.9,26.9,2,28,2 M28,0c-2.2,0-4,1.8-4,4
			c0,2.2,1.8,4,4,4s4-1.8,4-4C32,1.8,30.2,0,28,0L28,0z"/>
	</g>
	<path class="st1" d="M3,43c0-2.2,1.9-4,4.1-4H20h36.9c2.3,0,4.1,1.8,4.1,4"/>
	<line class="st1" x1="17" y1="22" x2="17" y2="59"/>
	<g>
		<line class="st1" x1="7" y1="60" x2="7" y2="63"/>
		<line class="st1" x1="57" y1="60" x2="57" y2="63"/>
	</g>
	<g>
		<path class="st2" d="M29,12c0.6,0,1,0.4,1,1s-0.4,1-1,1s-1-0.4-1-1S28.4,12,29,12 M29,10c-1.7,0-3,1.3-3,3s1.3,3,3,3s3-1.3,3-3
			S30.7,10,29,10L29,10z"/>
	</g>
</g>
<g id="Guides">
</g>
</svg>
