<?xml version="1.0" encoding="utf-8"?>
<!-- Generator: Adobe Illustrator 19.2.0, SVG Export Plug-In . SVG Version: 6.00 Build 0)  -->
<svg version="1.1" xmlns="http://www.w3.org/2000/svg" xmlns:xlink="http://www.w3.org/1999/xlink" x="0px" y="0px"
	 viewBox="0 0 64 64" style="enable-background:new 0 0 64 64;" xml:space="preserve">
<style type="text/css">
	.st0{fill:none;stroke:#1C1C1C;stroke-width:2;stroke-miterlimit:10;}
	.st1{fill:none;stroke:#1C1C1C;stroke-width:2;stroke-linecap:round;stroke-miterlimit:10;}
	.st2{fill:#1C1C1C;}
	.st3{fill:none;stroke:#1C1C1C;stroke-width:2;stroke-linecap:round;stroke-linejoin:round;stroke-miterlimit:10;}
	.st4{fill:none;stroke:#1C1C1C;stroke-width:2;stroke-linecap:round;stroke-miterlimit:10;stroke-dasharray:6;}
	.st5{fill:none;stroke:#1C1C1C;stroke-linecap:round;stroke-miterlimit:10;}
	.st6{fill:none;stroke:#1C1C1C;stroke-linecap:round;stroke-miterlimit:10;stroke-dasharray:4;}
	.st7{fill:none;stroke:#1C1C1C;stroke-width:1.5;stroke-linecap:round;stroke-miterlimit:10;}
	.st8{fill:none;stroke:#1C1C1C;stroke-width:4;stroke-linecap:round;stroke-miterlimit:10;}
	.st9{fill:none;stroke:#1C1C1C;stroke-width:5;stroke-linecap:round;stroke-miterlimit:10;}
	.st10{fill:none;stroke:#161616;stroke-width:2;stroke-linecap:round;stroke-linejoin:round;stroke-miterlimit:10;}
	.st11{fill:none;stroke:#000000;stroke-miterlimit:10;}
</style>
<g id="Designs">
	<g>
		<path class="st1" d="M3,48V38c0-3,2-5,5-5h48c2.9,0,5,2,5,5v10"/>
		<g>
			<g>
				<path class="st1" d="M35,32c0-2,0-2,0-4s-1.7-3,0-4c3-1.7,3.5,0,7,0s4-1.7,7,0c1.7,1,0,2,0,4s0,2,0,4"/>
			</g>
			<g>
				<path class="st1" d="M15,32c0-2,0-2,0-4s-1.7-3,0-4c3-1.7,3.5,0,7,0s4-1.7,7,0c1.7,1,0,2,0,4s0,2,0,4"/>
			</g>
		</g>
		<path class="st1" d="M51,15c-2-2.4-5.5-4-9-4H22c-3.5,0-6.9,1.4-9,4"/>
		<line class="st1" x1="9" y1="49" x2="9" y2="55"/>
		<line class="st1" x1="55" y1="49" x2="55" y2="55"/>
		<line class="st1" x1="1" y1="49" x2="63" y2="49"/>
		<line class="st1" x1="9" y1="32" x2="9" y2="9"/>
		<line class="st1" x1="55" y1="32" x2="55" y2="9"/>
		<line class="st1" x1="3" y1="43" x2="61" y2="43"/>
	</g>
</g>
<g id="Guides">
</g>
</svg>
