<?xml version="1.0" encoding="utf-8"?>
<!-- Generator: Adobe Illustrator 19.2.0, SVG Export Plug-In . SVG Version: 6.00 Build 0)  -->
<svg version="1.1" xmlns="http://www.w3.org/2000/svg" xmlns:xlink="http://www.w3.org/1999/xlink" x="0px" y="0px"
	 viewBox="0 0 64 64" style="enable-background:new 0 0 64 64;" xml:space="preserve">
<style type="text/css">
	.st0{fill:none;stroke:#1C1C1C;stroke-width:2;stroke-linecap:round;stroke-miterlimit:10;}
	.st1{fill:#1C1C1C;}
	.st2{fill:none;stroke:#1C1C1C;stroke-width:2;stroke-linecap:round;stroke-linejoin:round;stroke-miterlimit:10;}
	.st3{fill:none;stroke:#1C1C1C;stroke-width:2;stroke-linecap:round;stroke-miterlimit:10;stroke-dasharray:2,11;}
	.st4{fill:none;stroke:#1C1C1C;stroke-width:2;stroke-miterlimit:10;}
</style>
<g id="Designs">
	<path class="st2" d="M63,55V38c0-3-2.1-5-5-5H6c-3,0-5,2-5,5v17C1,55,63.1,55,63,55z"/>
	<g>
		<g>
			<path class="st0" d="M35,32c0-1.8,0-1.8,0-3.5s-1.6-2.8,0-3.5c3.7-1.6,4,0,8,0s4.3-1.6,8,0c1.6,0.7,0,1.8,0,3.5s0,1.8,0,3.5"/>
		</g>
		<g>
			<path class="st0" d="M13,32c0-1.8,0-1.8,0-3.5s-1.6-2.8,0-3.5c3.7-1.6,4,0,8,0s4.3-1.6,8,0c1.6,0.7,0,1.8,0,3.5s0,1.8,0,3.5"/>
		</g>
	</g>
	<path class="st2" d="M7,32V10.2C7,9.6,7.6,9,8.2,9c6.9,0,40.6,0.2,47.5,0.1c0.7,0,1.3,0.5,1.3,1.2V32"/>
	<line class="st0" x1="1" y1="47" x2="63" y2="47"/>
</g>
<g id="Guides">
</g>
</svg>
