<?xml version="1.0" encoding="utf-8"?>
<!-- Generator: Adobe Illustrator 19.2.0, SVG Export Plug-In . SVG Version: 6.00 Build 0)  -->
<svg version="1.1" xmlns="http://www.w3.org/2000/svg" xmlns:xlink="http://www.w3.org/1999/xlink" x="0px" y="0px"
	 viewBox="0 0 64 64" style="enable-background:new 0 0 64 64;" xml:space="preserve">
<style type="text/css">
	.st0{fill:none;stroke:#1C1C1C;stroke-width:2;stroke-linecap:round;stroke-miterlimit:10;}
	.st1{fill:#1C1C1C;}
	.st2{fill:none;stroke:#1C1C1C;stroke-width:2;stroke-linecap:round;stroke-linejoin:round;stroke-miterlimit:10;}
	.st3{fill:none;stroke:#1C1C1C;stroke-width:2;stroke-linecap:round;stroke-miterlimit:10;stroke-dasharray:2,11;}
	.st4{fill:none;stroke:#1C1C1C;stroke-width:2;stroke-miterlimit:10;}
</style>
<g id="Designs">
	<g>
		<g>
			<path class="st2" d="M63,24.5c-0.1,1.6-0.3,2.5-2,2.5c-0.6,0-1.3,0-2,0l-3,2H19c-2.2,0-4-2.3-4-4.5V12.5c0-2.2,1.8-3.5,4-3.5h37
				l3,2c0.7,0,1.1,0,2,0c1.8,0,2,0.5,2,1.5V24.5z"/>
			<path class="st2" d="M15,25.5l-2-1c-1.1-0.8-2-0.9-2-2v-8c0-1,0.4-1.2,2-2l2-1"/>
			<line class="st2" x1="1" y1="18" x2="11" y2="18"/>
			<path class="st2" d="M57,33l4,14c0,0,0,3,0,5c0,0.2-14,0-14,0s0.8-1.3,4-7.2l-4-15.1"/>
			<line class="st2" x1="56" y1="9" x2="56" y2="29"/>
			<line class="st2" x1="59" y1="15" x2="60" y2="15"/>
			<line class="st2" x1="59" y1="19" x2="60" y2="19"/>
			<line class="st2" x1="59" y1="23" x2="60" y2="23"/>
			<polyline class="st2" points="44,29 44,35 48,35 			"/>
			<line class="st2" x1="21" y1="9" x2="21" y2="29"/>
		</g>
		<polyline class="st2" points="61,52 61,55 47,55 47,52 		"/>
	</g>
</g>
<g id="Guides">
</g>
</svg>
