<?xml version="1.0" encoding="utf-8"?>
<!-- Generator: Adobe Illustrator 19.2.0, SVG Export Plug-In . SVG Version: 6.00 Build 0)  -->
<svg version="1.1" xmlns="http://www.w3.org/2000/svg" xmlns:xlink="http://www.w3.org/1999/xlink" x="0px" y="0px"
	 viewBox="0 0 64 64" style="enable-background:new 0 0 64 64;" xml:space="preserve">
<style type="text/css">
	.st0{fill:none;stroke:#1C1C1C;stroke-width:2;stroke-linecap:round;stroke-miterlimit:10;}
	.st1{fill:#1C1C1C;}
	.st2{fill:none;stroke:#1C1C1C;stroke-width:2;stroke-linecap:round;stroke-linejoin:round;stroke-miterlimit:10;}
	.st3{fill:none;stroke:#1C1C1C;stroke-width:2;stroke-linecap:round;stroke-miterlimit:10;stroke-dasharray:2,11;}
	.st4{fill:none;stroke:#1C1C1C;stroke-width:2;stroke-miterlimit:10;}
</style>
<g id="Designs">
	<g>
		<polyline class="st0" points="25,21 25,31 9,31 9,21 		"/>
		<g>
			<path class="st1" d="M23,52c0.6,0,1,0.4,1,1s-0.4,1-1,1s-1-0.4-1-1S22.4,52,23,52 M23,50c-1.7,0-3,1.3-3,3s1.3,3,3,3s3-1.3,3-3
				S24.7,50,23,50L23,50z"/>
		</g>
		<g>
			<path class="st1" d="M41,52c0.6,0,1,0.4,1,1s-0.4,1-1,1s-1-0.4-1-1S40.4,52,41,52 M41,50c-1.7,0-3,1.3-3,3s1.3,3,3,3s3-1.3,3-3
				S42.7,50,41,50L41,50z"/>
		</g>
		<line class="st0" x1="48" y1="24" x2="24" y2="51"/>
		<line class="st0" x1="22" y1="31" x2="40" y2="51"/>
		<path class="st0" d="M9,24l-6.5,0C1.7,24,1,23.3,1,22.5l0,0C1,21.7,1.7,21,2.5,21l59-0.1c0.8,0,1.5,0.7,1.5,1.5l0,0
			c0,0.8-0.7,1.5-1.5,1.5L25,24"/>
		<path class="st2" d="M55,18c0-5.9-3-9-3-9s-3,3-3,9H55z"/>
	</g>
</g>
<g id="Guides">
</g>
</svg>
