<?xml version="1.0" encoding="utf-8"?>
<!-- Generator: Adobe Illustrator 19.2.0, SVG Export Plug-In . SVG Version: 6.00 Build 0)  -->
<svg version="1.1" xmlns="http://www.w3.org/2000/svg" xmlns:xlink="http://www.w3.org/1999/xlink" x="0px" y="0px"
	 viewBox="0 0 64 64" style="enable-background:new 0 0 64 64;" xml:space="preserve">
<style type="text/css">
	.st0{fill:none;stroke:#1C1C1C;stroke-width:2;stroke-miterlimit:10;}
	.st1{fill:none;stroke:#1C1C1C;stroke-width:2;stroke-linecap:round;stroke-miterlimit:10;}
	.st2{fill:#1C1C1C;}
	.st3{fill:none;stroke:#1C1C1C;stroke-width:2;stroke-linecap:round;stroke-linejoin:round;stroke-miterlimit:10;}
	.st4{fill:none;stroke:#1C1C1C;stroke-width:2;stroke-linecap:round;stroke-miterlimit:10;stroke-dasharray:6;}
	.st5{fill:none;stroke:#1C1C1C;stroke-linecap:round;stroke-miterlimit:10;}
	.st6{fill:none;stroke:#1C1C1C;stroke-linecap:round;stroke-miterlimit:10;stroke-dasharray:4;}
	.st7{fill:none;stroke:#1C1C1C;stroke-width:1.5;stroke-linecap:round;stroke-miterlimit:10;}
	.st8{fill:none;stroke:#1C1C1C;stroke-width:4;stroke-linecap:round;stroke-miterlimit:10;}
	.st9{fill:none;stroke:#1C1C1C;stroke-width:5;stroke-linecap:round;stroke-miterlimit:10;}
	.st10{fill:none;stroke:#161616;stroke-width:2;stroke-linecap:round;stroke-linejoin:round;stroke-miterlimit:10;}
	.st11{fill:none;stroke:#000000;stroke-miterlimit:10;}
</style>
<g id="Designs">
	<g>
		<g>
			<g>
				<path class="st2" d="M38,18c1.1,0,2,0.9,2,2v17.6c0,1-1,2.4-2,2.4H4c-1,0-2-1-2-2V20c0-1.1,0.9-2,2-2H38 M38,16H4
					c-2.2,0-4,1.8-4,4v18c0,2.2,1.8,4,4,4h34c2.3,0,4-2.4,4-4.4V20C42,17.8,40.2,16,38,16L38,16z"/>
			</g>
			<line class="st1" x1="2" y1="36" x2="40" y2="36"/>
			<line class="st1" x1="17" y1="47" x2="25" y2="47"/>
			<g>
				<path class="st2" d="M60,18c1.1,0,2,0.9,2,2v24c0,1-1,2-2,2H50c-1,0-2-1-2-2V20c0-1.1,0.9-2,2-2H60 M60,16H50c-2.2,0-4,1.8-4,4
					v24c0,2.2,1.8,4,4,4h10c2.2,0,4-1.8,4-4V20C64,17.8,62.2,16,60,16L60,16z"/>
			</g>
			<line class="st1" x1="52" y1="23" x2="58" y2="23"/>
			<line class="st1" x1="52" y1="27" x2="58" y2="27"/>
			<line class="st1" x1="55" y1="41" x2="55" y2="43"/>
			<line class="st1" x1="55" y1="35" x2="55" y2="37"/>
		</g>
		<line class="st1" x1="19" y1="42" x2="19" y2="47"/>
		<line class="st1" x1="23" y1="42" x2="23" y2="47"/>
		<line class="st1" x1="17" y1="29" x2="25" y2="23"/>
		<line class="st1" x1="23" y1="31" x2="27" y2="28"/>
	</g>
</g>
<g id="Guides">
</g>
</svg>
