<?xml version="1.0" encoding="utf-8"?>
<!-- Generator: Adobe Illustrator 19.2.0, SVG Export Plug-In . SVG Version: 6.00 Build 0)  -->
<svg version="1.1" xmlns="http://www.w3.org/2000/svg" xmlns:xlink="http://www.w3.org/1999/xlink" x="0px" y="0px"
	 viewBox="0 0 64 64" style="enable-background:new 0 0 64 64;" xml:space="preserve">
<style type="text/css">
	.st0{fill:none;stroke:#1C1C1C;stroke-width:2;stroke-miterlimit:10;}
	.st1{fill:none;stroke:#1C1C1C;stroke-width:2;stroke-linecap:round;stroke-miterlimit:10;}
	.st2{fill:#1C1C1C;}
	.st3{fill:none;stroke:#1C1C1C;stroke-width:2;stroke-linecap:round;stroke-linejoin:round;stroke-miterlimit:10;}
	.st4{fill:none;stroke:#1C1C1C;stroke-width:2;stroke-linecap:round;stroke-miterlimit:10;stroke-dasharray:6;}
	.st5{fill:none;stroke:#1C1C1C;stroke-linecap:round;stroke-miterlimit:10;}
	.st6{fill:none;stroke:#1C1C1C;stroke-linecap:round;stroke-miterlimit:10;stroke-dasharray:4;}
	.st7{fill:none;stroke:#1C1C1C;stroke-width:1.5;stroke-linecap:round;stroke-miterlimit:10;}
	.st8{fill:none;stroke:#1C1C1C;stroke-width:4;stroke-linecap:round;stroke-miterlimit:10;}
	.st9{fill:none;stroke:#1C1C1C;stroke-width:5;stroke-linecap:round;stroke-miterlimit:10;}
	.st10{fill:none;stroke:#161616;stroke-width:2;stroke-linecap:round;stroke-linejoin:round;stroke-miterlimit:10;}
	.st11{fill:none;stroke:#000000;stroke-miterlimit:10;}
</style>
<g id="Designs">
	<g>
		<path class="st2" d="M60,26c1,0,2,0.9,2,2v32c0,1.1-1,2-2,2H4c-1,0-2-0.9-2-2V28c0-1.1,1-2,2-2H60 M60,24H4c-2.2,0-4,1.8-4,4v32
			c0,2.2,1.8,4,4,4h56c2.2,0,4-1.8,4-4V28C64,25.8,62.2,24,60,24L60,24z"/>
	</g>
	<line class="st1" x1="2" y1="37" x2="62" y2="37"/>
	<g>
		<line class="st1" x1="17" y1="13" x2="47" y2="13"/>
		<line class="st1" x1="17" y1="19" x2="47" y2="19"/>
	</g>
	<line class="st1" x1="55" y1="11" x2="55" y2="24.5"/>
	<polyline class="st1" points="9,24.5 9,1 48,1 55,7 	"/>
	<polyline class="st1" points="47,1 47,7 55,7 	"/>
	<line class="st1" x1="27" y1="31" x2="37" y2="31"/>
	<circle class="st1" cx="13" cy="31" r="2"/>
	<path class="st1" d="M9,61.8V45c0-1.1,0.7-2,2-2h42c1.3,0,2,0.8,2,2v16.8"/>
	<line class="st1" x1="10" y1="47" x2="51" y2="47"/>
</g>
<g id="Guides">
</g>
</svg>
