<?xml version="1.0" encoding="utf-8"?>
<!-- Generator: Adobe Illustrator 19.2.0, SVG Export Plug-In . SVG Version: 6.00 Build 0)  -->
<svg version="1.1" xmlns="http://www.w3.org/2000/svg" xmlns:xlink="http://www.w3.org/1999/xlink" x="0px" y="0px"
	 viewBox="0 0 64 64" style="enable-background:new 0 0 64 64;" xml:space="preserve">
<style type="text/css">
	.st0{fill:none;stroke:#1C1C1C;stroke-width:2;stroke-miterlimit:10;}
	.st1{fill:none;stroke:#1C1C1C;stroke-width:2;stroke-linecap:round;stroke-miterlimit:10;}
	.st2{fill:#1C1C1C;}
	.st3{fill:none;stroke:#1C1C1C;stroke-width:2;stroke-linecap:round;stroke-linejoin:round;stroke-miterlimit:10;}
	.st4{fill:none;stroke:#1C1C1C;stroke-width:2;stroke-linecap:round;stroke-miterlimit:10;stroke-dasharray:6;}
	.st5{fill:none;stroke:#1C1C1C;stroke-linecap:round;stroke-miterlimit:10;}
	.st6{fill:none;stroke:#1C1C1C;stroke-linecap:round;stroke-miterlimit:10;stroke-dasharray:4;}
	.st7{fill:none;stroke:#1C1C1C;stroke-width:1.5;stroke-linecap:round;stroke-miterlimit:10;}
	.st8{fill:none;stroke:#1C1C1C;stroke-width:4;stroke-linecap:round;stroke-miterlimit:10;}
	.st9{fill:none;stroke:#1C1C1C;stroke-width:5;stroke-linecap:round;stroke-miterlimit:10;}
	.st10{fill:none;stroke:#161616;stroke-width:2;stroke-linecap:round;stroke-linejoin:round;stroke-miterlimit:10;}
	.st11{fill:none;stroke:#000000;stroke-miterlimit:10;}
</style>
<g id="Designs">
	<g>
		<path class="st1" d="M41,33v-2c0-2,2-4,4-4h6c2,0,4,2,4,4l0,2"/>
		<path class="st1" d="M41,31c0-1.9-1.9-4-4-4h-6c-0.3,0-0.7,0.1-1,0.2"/>
		<line class="st1" x1="31" y1="33" x2="51" y2="33"/>
		<path class="st1" d="M61,31v8.1c0,1.1-0.9,1.9-2,1.9H31"/>
		<path class="st1" d="M61.1,30.4c1.1-0.7,1.9-2,1.9-3.4c0-2.2-1.8-4-4-4s-4,1.8-4,4v4"/>
		<path class="st1" d="M41,24v-6c0-0.4,0.5-1,1-1h12c0.5,0,1,0.5,1,1v8"/>
		<path class="st1" d="M27,24l0-6c0-0.4,0.5-1,1-1h12c0.5,0,1,0.5,1,1"/>
		<path class="st1" d="M9,26v-8c0-0.4,0.5-1,1-1h16c0.5,0,1,0.5,1,1"/>
		<path class="st1" d="M1.5,29c-0.2-0.3-0.3-0.6-0.4-1C1,27.7,1,27.4,1,27c0-2.2,1.8-4,4-4s4,1.8,4,4v3"/>
		<path class="st1" d="M27.6,31c-0.2-1-1.5-2.8-2.4-3.2c-0.9-0.4-1.8-0.8-3-0.8h-8c-0.4,0-0.8,0-1.2,0.1"/>
		<path class="st1" d="M1,36l0-1.9C1,32.1,4.4,31,9.3,31h13.3c4.9,0,8.3,1.1,8.3,3.1V36C31,36,0.7,36,1,36z"/>
		<path class="st1" d="M31,36v9c0,1-1,2-2,2H3c-1,0-2-1-2-2l0-9"/>
	</g>
</g>
<g id="Guides">
</g>
</svg>
