<?xml version="1.0" encoding="utf-8"?>
<!-- Generator: Adobe Illustrator 19.2.0, SVG Export Plug-In . SVG Version: 6.00 Build 0)  -->
<svg version="1.1" xmlns="http://www.w3.org/2000/svg" xmlns:xlink="http://www.w3.org/1999/xlink" x="0px" y="0px"
	 viewBox="0 0 64 64" style="enable-background:new 0 0 64 64;" xml:space="preserve">
<style type="text/css">
	.st0{fill:none;stroke:#1C1C1C;stroke-width:2;stroke-miterlimit:10;}
	.st1{fill:none;stroke:#1C1C1C;stroke-width:2;stroke-linecap:round;stroke-miterlimit:10;}
	.st2{fill:#1C1C1C;}
	.st3{fill:none;stroke:#1C1C1C;stroke-width:2;stroke-linecap:round;stroke-linejoin:round;stroke-miterlimit:10;}
	.st4{fill:none;stroke:#1C1C1C;stroke-width:2;stroke-linecap:round;stroke-miterlimit:10;stroke-dasharray:6;}
	.st5{fill:none;stroke:#1C1C1C;stroke-linecap:round;stroke-miterlimit:10;}
	.st6{fill:none;stroke:#1C1C1C;stroke-linecap:round;stroke-miterlimit:10;stroke-dasharray:4;}
	.st7{fill:none;stroke:#1C1C1C;stroke-width:1.5;stroke-linecap:round;stroke-miterlimit:10;}
	.st8{fill:none;stroke:#1C1C1C;stroke-width:4;stroke-linecap:round;stroke-miterlimit:10;}
	.st9{fill:none;stroke:#1C1C1C;stroke-width:5;stroke-linecap:round;stroke-miterlimit:10;}
	.st10{fill:none;stroke:#161616;stroke-width:2;stroke-linecap:round;stroke-linejoin:round;stroke-miterlimit:10;}
	.st11{fill:none;stroke:#000000;stroke-miterlimit:10;}
</style>
<g id="Designs">
	<g>
		<path class="st1" d="M43,9h2c1.2,0,2,0.9,2,2v0c0,1.1-0.8,2-2,2h-6"/>
		<line class="st1" x1="20" y1="23" x2="12" y2="44"/>
		<path class="st1" d="M12,44h18.5c0.3,0,0.7-0.2,0.8-0.5L44,23"/>
		<line class="st1" x1="41" y1="13" x2="52" y2="44"/>
		<line class="st1" x1="17" y1="17" x2="30.8" y2="43.5"/>
		<line class="st1" x1="13" y1="17" x2="25" y2="17"/>
		<line class="st1" x1="25" y1="23" x2="39" y2="23"/>
		<path class="st1" d="M21.9,49c-1.8,3.6-5.6,6.1-9.9,6.1C5.9,55.1,1,50.1,1,44s5-11.1,11.1-11.1c4.4,0,8.2,2.5,10,6.2"/>
		<g>
			<path class="st2" d="M52,34c5.5,0,10,4.5,10,10s-4.5,10-10,10s-10-4.5-10-10S46.5,34,52,34 M52,32c-6.6,0-12,5.4-12,12
				s5.4,12,12,12s12-5.4,12-12S58.6,32,52,32L52,32z"/>
		</g>
	</g>
</g>
<g id="Guides">
</g>
</svg>
