<?xml version="1.0" encoding="utf-8"?>
<!-- Generator: Adobe Illustrator 19.2.0, SVG Export Plug-In . SVG Version: 6.00 Build 0)  -->
<svg version="1.1" xmlns="http://www.w3.org/2000/svg" xmlns:xlink="http://www.w3.org/1999/xlink" x="0px" y="0px"
	 viewBox="0 0 64 64" style="enable-background:new 0 0 64 64;" xml:space="preserve">
<style type="text/css">
	.st0{fill:none;stroke:#1C1C1C;stroke-width:2;stroke-linecap:round;stroke-miterlimit:10;}
	.st1{fill:#1C1C1C;}
	.st2{fill:none;stroke:#1C1C1C;stroke-width:2;stroke-linecap:round;stroke-linejoin:round;stroke-miterlimit:10;}
	.st3{fill:none;stroke:#1C1C1C;stroke-width:2;stroke-linecap:round;stroke-miterlimit:10;stroke-dasharray:2,11;}
	.st4{fill:none;stroke:#1C1C1C;stroke-width:2;stroke-miterlimit:10;}
</style>
<g id="Designs">
	<g>
		<circle class="st0" cx="9.5" cy="46.5" r="8.5"/>
		<circle class="st0" cx="52" cy="44" r="11"/>
		<path class="st2" d="M24,44L9,47l12-15c0,0,11.2-0.8,16,2"/>
		<circle class="st0" cx="26" cy="43" r="2"/>
		<path class="st0" d="M26,41c0,0-9.2-14-9-14"/>
		<path class="st0" d="M52,44L35,18c-0.1-0.1-0.5-0.4,0-1l3.7-2.8c0.1-0.1,0.2-0.3,0-0.4c-0.9-1-4-4.8-11.8-4.8"/>
		<line class="st0" x1="28" y1="42" x2="42" y2="30"/>
		<line class="st0" x1="12" y1="23" x2="25" y2="23"/>
		<path class="st0" d="M47,28l-4.9-8.4c-0.2-0.3,0-0.6,0.3-0.6h11.9c0.4,0,0.7,0.3,0.7,0.7c0,0-0.7,5.4-1,7.3c-0.1,0.7-0.2,1-1,1H47
			z"/>
		<line class="st2" x1="29" y1="50" x2="25" y2="50"/>
	</g>
</g>
<g id="Guides">
</g>
</svg>
