<?xml version="1.0" encoding="utf-8"?>
<!-- Generator: Adobe Illustrator 19.2.0, SVG Export Plug-In . SVG Version: 6.00 Build 0)  -->
<svg version="1.1" xmlns="http://www.w3.org/2000/svg" xmlns:xlink="http://www.w3.org/1999/xlink" x="0px" y="0px"
	 viewBox="0 0 64 64" style="enable-background:new 0 0 64 64;" xml:space="preserve">
<style type="text/css">
	.st0{fill:none;stroke:#1C1C1C;stroke-width:2;stroke-linecap:round;stroke-miterlimit:10;}
	.st1{fill:#1C1C1C;}
	.st2{fill:none;stroke:#1C1C1C;stroke-width:2;stroke-linecap:round;stroke-linejoin:round;stroke-miterlimit:10;}
	.st3{fill:none;stroke:#1C1C1C;stroke-width:2;stroke-linecap:round;stroke-miterlimit:10;stroke-dasharray:2,11;}
	.st4{fill:none;stroke:#1C1C1C;stroke-width:2;stroke-miterlimit:10;}
</style>
<g id="Designs">
	<g>
		<line class="st2" x1="1" y1="9" x2="63" y2="9"/>
		<line class="st2" x1="17" y1="13" x2="47" y2="13"/>
		<path class="st2" d="M9,9c0,0,7.8,9.3,8,21s-0.9,25-9,25H5"/>
		<path class="st2" d="M55,9c0,0-7.7,9.3-8,21s0.9,25,9,25h3"/>
		<line class="st2" x1="17" y1="29" x2="47" y2="29"/>
		<line class="st2" x1="17" y1="35" x2="47" y2="35"/>
		<polyline class="st2" points="28,29 30,32 28.2,34.8 		"/>
		<polyline class="st2" points="36,35 34,32 36,29 		"/>
		<path class="st2" d="M21,51c0,0,4-1.1,4-5v-7"/>
		<path class="st2" d="M43,51c0,0-4-1.1-4-5v-7"/>
		<path class="st2" d="M25,25c0,0-0.3-4.9-2-8"/>
		<path class="st2" d="M39,25c0,0,0.3-4.9,2-8"/>
		<polyline class="st2" points="41,29 43,32 41,35 		"/>
		<polyline class="st2" points="23,35 21,32 23,29 		"/>
	</g>
</g>
<g id="Guides">
</g>
</svg>
