<?xml version="1.0" encoding="utf-8"?>
<!-- Generator: Adobe Illustrator 19.2.0, SVG Export Plug-In . SVG Version: 6.00 Build 0)  -->
<svg version="1.1" xmlns="http://www.w3.org/2000/svg" xmlns:xlink="http://www.w3.org/1999/xlink" x="0px" y="0px"
	 viewBox="0 0 64 64" style="enable-background:new 0 0 64 64;" xml:space="preserve">
<style type="text/css">
	.st0{fill:none;stroke:#1C1C1C;stroke-width:2;stroke-miterlimit:10;}
	.st1{fill:none;stroke:#1C1C1C;stroke-width:2;stroke-linecap:round;stroke-miterlimit:10;}
	.st2{fill:#1C1C1C;}
	.st3{fill:none;stroke:#1C1C1C;stroke-width:2;stroke-linecap:round;stroke-linejoin:round;stroke-miterlimit:10;}
	.st4{fill:none;stroke:#1C1C1C;stroke-width:2;stroke-linecap:round;stroke-miterlimit:10;stroke-dasharray:6;}
	.st5{fill:none;stroke:#1C1C1C;stroke-linecap:round;stroke-miterlimit:10;}
	.st6{fill:none;stroke:#1C1C1C;stroke-linecap:round;stroke-miterlimit:10;stroke-dasharray:4;}
	.st7{fill:none;stroke:#1C1C1C;stroke-width:1.5;stroke-linecap:round;stroke-miterlimit:10;}
	.st8{fill:none;stroke:#1C1C1C;stroke-width:4;stroke-linecap:round;stroke-miterlimit:10;}
	.st9{fill:none;stroke:#1C1C1C;stroke-width:5;stroke-linecap:round;stroke-miterlimit:10;}
	.st10{fill:none;stroke:#161616;stroke-width:2;stroke-linecap:round;stroke-linejoin:round;stroke-miterlimit:10;}
	.st11{fill:none;stroke:#000000;stroke-miterlimit:10;}
</style>
<g id="Designs">
	<g>
		<line class="st1" x1="37" y1="39" x2="27" y2="39"/>
		<line class="st1" x1="19.1" y1="49.1" x2="9" y2="63"/>
		<line class="st1" x1="32" y1="51.7" x2="32" y2="61"/>
		<line class="st1" x1="44.8" y1="48.9" x2="50" y2="57"/>
		<path class="st1" d="M25,6V2.7c0-0.9,0-1.8,0.9-1.8h11.9C38.7,0.9,39,1.1,39,2v3.3"/>
		<g>
			<path class="st2" d="M32,6c9.9,0,22,6.8,22,15c0,0,0.1,3-3,3H13c-3.2,0-3-3-3-3C10,12.8,22.1,6,32,6 M32,4C21.1,4,8,11.6,8,21
				c0,0.4,0,2.2,1.3,3.6C9.9,25.2,11.1,26,13,26h38c1.9,0,3-0.8,3.7-1.4C56,23.2,56,21.4,56,21C56,11.6,42.9,4,32,4L32,4z"/>
		</g>
		<g>
			<path class="st2" d="M51,32c3.5,0,3,3.8,3,3.8c0,8-12.1,14.2-22,14.2c-9.9,0-22-6.2-22-14.2c0,0-0.5-3.8,3-3.8H51 M51,30H13
				c-2,0-3.1,0.8-3.7,1.6C7.9,33.1,8,35.3,8,35.9C8.1,45,20.9,52,32,52c11,0,23.9-7,24-16.1c0.1-0.6,0.1-2.7-1.2-4.3
				C54.1,30.9,53,30,51,30L51,30z"/>
		</g>
		<line class="st1" x1="13" y1="35" x2="51" y2="35"/>
		<g>
			<path class="st2" d="M52,58c1.1,0,2,0.9,2,2s-0.9,2-2,2s-2-0.9-2-2S50.9,58,52,58 M52,56c-2.2,0-4,1.8-4,4s1.8,4,4,4s4-1.8,4-4
				S54.2,56,52,56L52,56z"/>
		</g>
		<line class="st1" x1="17" y1="31" x2="17" y2="35"/>
		<line class="st1" x1="23" y1="31" x2="23" y2="35"/>
		<line class="st1" x1="47" y1="31" x2="47" y2="35"/>
		<line class="st1" x1="41" y1="31" x2="41" y2="35"/>
		<line class="st1" x1="29" y1="31" x2="29" y2="35"/>
		<line class="st1" x1="35" y1="31" x2="35" y2="35"/>
	</g>
</g>
<g id="Guides">
</g>
</svg>
