<?xml version="1.0" encoding="utf-8"?>
<!-- Generator: Adobe Illustrator 19.2.0, SVG Export Plug-In . SVG Version: 6.00 Build 0)  -->
<svg version="1.1" xmlns="http://www.w3.org/2000/svg" xmlns:xlink="http://www.w3.org/1999/xlink" x="0px" y="0px"
	 viewBox="0 0 64 64" style="enable-background:new 0 0 64 64;" xml:space="preserve">
<style type="text/css">
	.st0{fill:none;stroke:#1C1C1C;stroke-width:2;stroke-miterlimit:10;}
	.st1{fill:none;stroke:#1C1C1C;stroke-width:2;stroke-linecap:round;stroke-miterlimit:10;}
	.st2{fill:#1C1C1C;}
	.st3{fill:none;stroke:#1C1C1C;stroke-width:2;stroke-linecap:round;stroke-linejoin:round;stroke-miterlimit:10;}
	.st4{fill:none;stroke:#1C1C1C;stroke-width:2;stroke-linecap:round;stroke-miterlimit:10;stroke-dasharray:6;}
	.st5{fill:none;stroke:#1C1C1C;stroke-linecap:round;stroke-miterlimit:10;}
	.st6{fill:none;stroke:#1C1C1C;stroke-linecap:round;stroke-miterlimit:10;stroke-dasharray:4;}
	.st7{fill:none;stroke:#1C1C1C;stroke-width:1.5;stroke-linecap:round;stroke-miterlimit:10;}
	.st8{fill:none;stroke:#1C1C1C;stroke-width:4;stroke-linecap:round;stroke-miterlimit:10;}
	.st9{fill:none;stroke:#1C1C1C;stroke-width:5;stroke-linecap:round;stroke-miterlimit:10;}
	.st10{fill:none;stroke:#161616;stroke-width:2;stroke-linecap:round;stroke-linejoin:round;stroke-miterlimit:10;}
	.st11{fill:none;stroke:#000000;stroke-miterlimit:10;}
</style>
<g id="Designs">
	<g>
		<line class="st1" x1="21" y1="43" x2="43" y2="43"/>
		<line class="st1" x1="21" y1="55" x2="43" y2="55"/>
		<path class="st1" d="M21,14V8c0-3.9,3.2-7,7-7h8c3.9,0,7,3.1,7,7v6"/>
		<line class="st1" x1="47" y1="22" x2="47" y2="63"/>
		<line class="st1" x1="17" y1="63" x2="17" y2="22"/>
		<line class="st1" x1="18" y1="31" x2="46" y2="31"/>
		<path class="st1" d="M55,15v3c0,1.7-1.3,3-3,3H12c-1.7,0-3-1.3-3-3v-3"/>
		<line class="st1" x1="13" y1="15" x2="51" y2="15"/>
		<line class="st1" x1="32" y1="26" x2="32" y2="22"/>
		<path class="st1" d="M17,30c0-1.7,1.3-3,3-3l24,0c1.7,0,3,1.3,3,3"/>
	</g>
</g>
<g id="Guides">
</g>
</svg>
