<?xml version="1.0" encoding="utf-8"?>
<!-- Generator: Adobe Illustrator 19.2.0, SVG Export Plug-In . SVG Version: 6.00 Build 0)  -->
<svg version="1.1" xmlns="http://www.w3.org/2000/svg" xmlns:xlink="http://www.w3.org/1999/xlink" x="0px" y="0px"
	 viewBox="0 0 64 64" style="enable-background:new 0 0 64 64;" xml:space="preserve">
<style type="text/css">
	.st0{fill:none;stroke:#1C1C1C;stroke-width:2;stroke-linecap:round;stroke-miterlimit:10;}
	.st1{fill:#1C1C1C;}
	.st2{fill:none;stroke:#1C1C1C;stroke-width:2;stroke-linecap:round;stroke-linejoin:round;stroke-miterlimit:10;}
	.st3{fill:none;stroke:#1C1C1C;stroke-width:2;stroke-linecap:round;stroke-miterlimit:10;stroke-dasharray:2,11;}
	.st4{fill:none;stroke:#1C1C1C;stroke-width:2;stroke-miterlimit:10;}
</style>
<g id="Designs">
	<g>
		<line class="st0" x1="21" y1="55" x2="43" y2="55"/>
		<line class="st0" x1="44" y1="9" x2="44" y2="25"/>
		<line class="st0" x1="20" y1="25" x2="20" y2="9"/>
		<line class="st0" x1="47" y1="26" x2="47" y2="63"/>
		<line class="st0" x1="17" y1="63" x2="17" y2="26"/>
		<line class="st0" x1="18" y1="29" x2="46" y2="29"/>
	</g>
	<line class="st0" x1="15" y1="25" x2="49" y2="25"/>
	<path class="st0" d="M45.5,9H18.5c-0.3,0-0.6-0.2-0.6-0.5l-0.8-6.8C17,1.3,17.3,1,17.7,1h28.6c0.4,0,0.7,0.3,0.6,0.7l-0.8,6.8
		C46,8.8,45.8,9,45.5,9z"/>
	<line class="st0" x1="20" y1="12" x2="44" y2="22"/>
	<line class="st0" x1="44" y1="12" x2="20" y2="22"/>
</g>
<g id="Guides">
</g>
</svg>
