<?xml version="1.0" encoding="utf-8"?>
<!-- Generator: Adobe Illustrator 19.1.0, SVG Export Plug-In . SVG Version: 6.00 Build 0)  -->
<svg version="1.1" xmlns="http://www.w3.org/2000/svg" xmlns:xlink="http://www.w3.org/1999/xlink" x="0px" y="0px"
	 viewBox="0 0 48 48" style="enable-background:new 0 0 48 48;" xml:space="preserve">
<style type="text/css">
	.st0{fill:#1C1C1C;}
</style>
<g id="Icons">
	<path class="st0" d="M44.2,9.5L25.9,0.3c-0.5-0.2-1.1-0.4-1.8-0.4c-0.6,0-1.3,0.1-1.8,0.4L3.8,9.5C2.8,10,2,11.3,2,12.4v21.8
		c0,1.1,0.8,2.4,1.7,3l18.5,10.4c0.5,0.3,1.1,0.4,1.7,0.4c0.6,0,1.3-0.1,1.7-0.4l18.5-10.5c1-0.5,1.7-1.9,1.7-3V12.4
		C46,11.3,45.2,10,44.2,9.5z M24,20.6l-8.7-4.4l18.6-9.7l9,4.5L24,20.6z M23.2,2.1c0.1-0.1,0.5-0.2,0.9-0.2c0.4,0,0.8,0.1,0.9,0.2
		l6.7,3.4L13,15.2l-8-4L23.2,2.1z M4.7,35.4C4.4,35.2,4,34.6,4,34.2V12.9l19,9.5v23.3L4.7,35.4z M43.3,35.4L25,45.7V22.4l19-9.7
		v21.5C44,34.5,43.6,35.2,43.3,35.4z"/>
	<path class="st0" d="M37.5,21.6l-8.8,4.7c-0.5,0.3-0.7,0.9-0.4,1.4c0.2,0.3,0.5,0.5,0.9,0.5c0.2,0,0.3,0,0.5-0.1l8.8-4.7
		c0.5-0.3,0.7-0.9,0.4-1.4C38.5,21.5,37.9,21.3,37.5,21.6z"/>
	<path class="st0" d="M29.1,33.3c0.2,0,0.3,0,0.5-0.1l4.7-2.6c0.5-0.3,0.7-0.9,0.4-1.4c-0.3-0.5-0.9-0.7-1.4-0.4l-4.7,2.6
		c-0.5,0.3-0.7,0.9-0.4,1.4C28.4,33.1,28.7,33.3,29.1,33.3z"/>
	<path class="st0" d="M33.6,33.7l-5,2.7c-0.5,0.3-0.7,0.9-0.4,1.4c0.2,0.3,0.5,0.5,0.9,0.5c0.2,0,0.3,0,0.5-0.1l5-2.7
		c0.5-0.3,0.7-0.9,0.4-1.4C34.7,33.7,34.1,33.5,33.6,33.7z"/>
</g>
<g id="Doc-Label">
</g>
</svg>
