<?xml version="1.0" encoding="utf-8"?>
<!-- Generator: Adobe Illustrator 19.2.0, SVG Export Plug-In . SVG Version: 6.00 Build 0)  -->
<svg version="1.1" xmlns="http://www.w3.org/2000/svg" xmlns:xlink="http://www.w3.org/1999/xlink" x="0px" y="0px"
	 viewBox="0 0 64 64" style="enable-background:new 0 0 64 64;" xml:space="preserve">
<style type="text/css">
	.st0{fill:none;stroke:#1C1C1C;stroke-width:2;stroke-linecap:round;stroke-miterlimit:10;}
	.st1{fill:#1C1C1C;}
	.st2{fill:none;stroke:#1C1C1C;stroke-width:2;stroke-linecap:round;stroke-linejoin:round;stroke-miterlimit:10;}
	.st3{fill:none;stroke:#1C1C1C;stroke-width:2;stroke-linecap:round;stroke-miterlimit:10;stroke-dasharray:2,11;}
	.st4{fill:none;stroke:#1C1C1C;stroke-width:2;stroke-miterlimit:10;}
</style>
<g id="Designs">
	<line class="st0" x1="4" y1="1" x2="60" y2="1"/>
	<line class="st0" x1="6" y1="27" x2="10" y2="27"/>
	<polyline class="st2" points="58,1 58,27 63,33 63,63 57,58 57,40 	"/>
	<line class="st0" x1="10" y1="30" x2="54" y2="30"/>
	<path class="st2" d="M54,30V19c0-2.1-2-2-2-2H12c-2.3,0-2,2-2,2v11l-4,4h52L54,30z"/>
	<line class="st0" x1="27" y1="21" x2="37" y2="21"/>
	<polyline class="st2" points="7,40 7,58 1,63 1,33 6,27 6,1 	"/>
	<line class="st2" x1="7" y1="58" x2="57" y2="58"/>
	<polyline class="st0" points="25,54 29,54 29,52 	"/>
	<polyline class="st0" points="39,54 35,54 35,52 	"/>
	<line class="st0" x1="2" y1="39" x2="62" y2="39"/>
	<line class="st0" x1="54" y1="27" x2="58" y2="27"/>
</g>
<g id="Guides">
</g>
</svg>
