<?xml version="1.0" encoding="utf-8"?>
<!-- Generator: Adobe Illustrator 19.2.0, SVG Export Plug-In . SVG Version: 6.00 Build 0)  -->
<svg version="1.1" xmlns="http://www.w3.org/2000/svg" xmlns:xlink="http://www.w3.org/1999/xlink" x="0px" y="0px"
	 viewBox="0 0 64 64" style="enable-background:new 0 0 64 64;" xml:space="preserve">
<style type="text/css">
	.st0{fill:none;stroke:#1C1C1C;stroke-width:2;stroke-linecap:round;stroke-miterlimit:10;}
	.st1{fill:#1C1C1C;}
	.st2{fill:none;stroke:#1C1C1C;stroke-width:2;stroke-linecap:round;stroke-linejoin:round;stroke-miterlimit:10;}
	.st3{fill:none;stroke:#1C1C1C;stroke-width:2;stroke-linecap:round;stroke-miterlimit:10;stroke-dasharray:2,11;}
	.st4{fill:none;stroke:#1C1C1C;stroke-width:2;stroke-miterlimit:10;}
</style>
<g id="Designs">
	<path class="st0" d="M62.5,61H1.5C1.2,61,1,60.8,1,60.5V1.5C1,1.2,1.2,1,1.5,1h60.9C62.8,1,63,1.2,63,1.5v58.9
		C63,60.8,62.8,61,62.5,61z"/>
	<line class="st0" x1="21" y1="1" x2="21" y2="61"/>
	<line class="st0" x1="5" y1="23" x2="5" y2="37"/>
	<line class="st0" x1="59" y1="23" x2="59" y2="37"/>
	<line class="st0" x1="2" y1="48" x2="21" y2="48"/>
	<line class="st0" x1="4" y1="61" x2="4" y2="63"/>
	<line class="st0" x1="60" y1="61" x2="60" y2="63"/>
	<line class="st0" x1="43" y1="1" x2="43" y2="60"/>
	<line class="st0" x1="36" y1="17" x2="29" y2="27"/>
	<line class="st0" x1="34.8" y1="27.5" x2="29" y2="36"/>
	<line class="st0" x1="44" y1="48" x2="63" y2="48"/>
</g>
<g id="Guides">
</g>
</svg>
