<?xml version="1.0" encoding="utf-8"?>
<!-- Generator: Adobe Illustrator 19.2.0, SVG Export Plug-In . SVG Version: 6.00 Build 0)  -->
<svg version="1.1" xmlns="http://www.w3.org/2000/svg" xmlns:xlink="http://www.w3.org/1999/xlink" x="0px" y="0px"
	 viewBox="0 0 64 64" style="enable-background:new 0 0 64 64;" xml:space="preserve">
<style type="text/css">
	.st0{fill:none;stroke:#1C1C1C;stroke-width:2;stroke-linecap:round;stroke-miterlimit:10;}
	.st1{fill:#1C1C1C;}
	.st2{fill:none;stroke:#1C1C1C;stroke-width:2;stroke-linecap:round;stroke-linejoin:round;stroke-miterlimit:10;}
	.st3{fill:none;stroke:#1C1C1C;stroke-width:2;stroke-linecap:round;stroke-miterlimit:10;stroke-dasharray:2,11;}
	.st4{fill:none;stroke:#1C1C1C;stroke-width:2;stroke-miterlimit:10;}
</style>
<g id="Designs">
	<path class="st0" d="M45.8,60H18.2c-3.1,0-4.2-1.9-4.2-6l3-38c0-2.8,3.4-7,7-7h16c3.6,0,7,4.3,7,7l3,38C50,58.2,49.4,60,45.8,60z"
		/>
	<line class="st0" x1="17" y1="63" x2="21" y2="63"/>
	<line class="st0" x1="43" y1="63" x2="47" y2="63"/>
	<line class="st0" x1="32" y1="9" x2="32" y2="2"/>
	<line class="st0" x1="28" y1="1" x2="36" y2="1"/>
	<line class="st0" x1="23" y1="1" x2="25" y2="1"/>
	<line class="st0" x1="39" y1="1" x2="41" y2="1"/>
	<path class="st0" d="M27,9c0,0,0,17,0,26c0,16.9-5,25-5,25"/>
	<line class="st0" x1="27" y1="26" x2="37" y2="26"/>
	<line class="st0" x1="27" y1="42" x2="36" y2="42"/>
	<path class="st0" d="M17,24h3c1.1,0,2,0.9,2,2v0c0,1.1-0.9,2-2,2h-3"/>
	<path class="st0" d="M47,24h-3c-1.1,0-2,0.9-2,2v0c0,1.1,0.9,2,2,2h4"/>
	<path class="st0" d="M16,40h3c1.1,0,2,0.9,2,2v0c0,1.1-0.9,2-2,2h-4"/>
	<path class="st0" d="M48,40h-3c-1.1,0-2,0.9-2,2v0c0,1.1,0.9,2,2,2h4"/>
	<path class="st0" d="M37,9c0,0,0,17,0,26c0,16.9,5,25,5,25"/>
</g>
<g id="Guides">
</g>
</svg>
