<?xml version="1.0" encoding="utf-8"?>
<!-- Generator: Adobe Illustrator 19.2.0, SVG Export Plug-In . SVG Version: 6.00 Build 0)  -->
<svg version="1.1" xmlns="http://www.w3.org/2000/svg" xmlns:xlink="http://www.w3.org/1999/xlink" x="0px" y="0px"
	 viewBox="0 0 64 64" style="enable-background:new 0 0 64 64;" xml:space="preserve">
<style type="text/css">
	.st0{fill:none;stroke:#1C1C1C;stroke-width:2;stroke-miterlimit:10;}
	.st1{fill:none;stroke:#1C1C1C;stroke-width:2;stroke-linecap:round;stroke-miterlimit:10;}
	.st2{fill:#1C1C1C;}
	.st3{fill:none;stroke:#1C1C1C;stroke-width:2;stroke-linecap:round;stroke-linejoin:round;stroke-miterlimit:10;}
	.st4{fill:none;stroke:#1C1C1C;stroke-width:2;stroke-linecap:round;stroke-miterlimit:10;stroke-dasharray:6;}
	.st5{fill:none;stroke:#1C1C1C;stroke-linecap:round;stroke-miterlimit:10;}
	.st6{fill:none;stroke:#1C1C1C;stroke-linecap:round;stroke-miterlimit:10;stroke-dasharray:4;}
	.st7{fill:none;stroke:#1C1C1C;stroke-width:1.5;stroke-linecap:round;stroke-miterlimit:10;}
	.st8{fill:none;stroke:#1C1C1C;stroke-width:4;stroke-linecap:round;stroke-miterlimit:10;}
	.st9{fill:none;stroke:#1C1C1C;stroke-width:5;stroke-linecap:round;stroke-miterlimit:10;}
	.st10{fill:none;stroke:#161616;stroke-width:2;stroke-linecap:round;stroke-linejoin:round;stroke-miterlimit:10;}
	.st11{fill:none;stroke:#000000;stroke-miterlimit:10;}
</style>
<g id="Designs">
	<g>
		<path class="st1" d="M61,14v35.5c0,0.8-0.7,1.5-1.5,1.5H4.5C3.7,51,3,50.3,3,49.5V14c0-0.6,0.5-1,1-1l56,0C60.6,13,61,13.4,61,14z
			"/>
		<line class="st1" x1="1" y1="9" x2="63" y2="9"/>
		<line class="st1" x1="9" y1="51" x2="9" y2="55"/>
		<line class="st1" x1="55" y1="51" x2="55" y2="55"/>
		<line class="st1" x1="4" y1="25" x2="60" y2="25"/>
		<line class="st1" x1="4" y1="39" x2="60" y2="39"/>
		<line class="st1" x1="32" y1="17" x2="32" y2="21"/>
		<line class="st1" x1="32" y1="30" x2="32" y2="34"/>
		<line class="st1" x1="32" y1="43" x2="32" y2="47"/>
	</g>
</g>
<g id="Guides">
</g>
</svg>
