<?xml version="1.0" encoding="utf-8"?>
<!-- Generator: Adobe Illustrator 19.2.0, SVG Export Plug-In . SVG Version: 6.00 Build 0)  -->
<svg version="1.1" xmlns="http://www.w3.org/2000/svg" xmlns:xlink="http://www.w3.org/1999/xlink" x="0px" y="0px"
	 viewBox="0 0 64 64" style="enable-background:new 0 0 64 64;" xml:space="preserve">
<style type="text/css">
	.st0{fill:none;stroke:#1C1C1C;stroke-width:2;stroke-miterlimit:10;}
	.st1{fill:none;stroke:#1C1C1C;stroke-width:2;stroke-linecap:round;stroke-miterlimit:10;}
	.st2{fill:#1C1C1C;}
	.st3{fill:none;stroke:#1C1C1C;stroke-width:2;stroke-linecap:round;stroke-linejoin:round;stroke-miterlimit:10;}
	.st4{fill:none;stroke:#1C1C1C;stroke-width:2;stroke-linecap:round;stroke-miterlimit:10;stroke-dasharray:6;}
	.st5{fill:none;stroke:#1C1C1C;stroke-linecap:round;stroke-miterlimit:10;}
	.st6{fill:none;stroke:#1C1C1C;stroke-linecap:round;stroke-miterlimit:10;stroke-dasharray:4;}
	.st7{fill:none;stroke:#1C1C1C;stroke-width:1.5;stroke-linecap:round;stroke-miterlimit:10;}
	.st8{fill:none;stroke:#1C1C1C;stroke-width:4;stroke-linecap:round;stroke-miterlimit:10;}
	.st9{fill:none;stroke:#1C1C1C;stroke-width:5;stroke-linecap:round;stroke-miterlimit:10;}
	.st10{fill:none;stroke:#161616;stroke-width:2;stroke-linecap:round;stroke-linejoin:round;stroke-miterlimit:10;}
	.st11{fill:none;stroke:#000000;stroke-miterlimit:10;}
</style>
<g id="Designs">
	<line class="st1" x1="20" y1="21" x2="20" y2="25"/>
	<line class="st1" x1="20" y1="14" x2="20" y2="17"/>
	<line class="st1" x1="17" y1="26" x2="23" y2="26"/>
	<line class="st1" x1="44" y1="21" x2="44" y2="25"/>
	<line class="st1" x1="44" y1="14" x2="44" y2="17"/>
	<line class="st1" x1="42" y1="26" x2="48" y2="26"/>
	<line class="st1" x1="52" y1="41" x2="52" y2="45"/>
	<line class="st1" x1="52" y1="34" x2="52" y2="37"/>
	<line class="st1" x1="49" y1="46" x2="55" y2="46"/>
	<line class="st1" x1="39" y1="53" x2="39" y2="57"/>
	<line class="st1" x1="39" y1="46" x2="39" y2="49"/>
	<line class="st1" x1="37" y1="58" x2="43" y2="58"/>
	<line class="st1" x1="12" y1="41" x2="12" y2="45"/>
	<line class="st1" x1="12" y1="34" x2="12" y2="37"/>
	<line class="st1" x1="9" y1="46" x2="15" y2="46"/>
	<line class="st1" x1="25" y1="53" x2="25" y2="57"/>
	<line class="st1" x1="25" y1="46" x2="25" y2="49"/>
	<line class="st1" x1="21" y1="58" x2="27" y2="58"/>
	<line class="st1" x1="32" y1="1" x2="32" y2="47"/>
	<path class="st1" d="M48,26c0,2.7-2.2,5-5,5h0c-2.8,0-5-2.2-5-5V11"/>
	<path class="st1" d="M17,26c0.1,2.9,2.1,5,5.5,5H22c2.7,0,5-2.2,5-5V11"/>
	<path class="st1" d="M43,58c-0.3,2.8-2.6,5-5.5,5h0c-2.9,0-5.2-2.2-5.5-5"/>
	<path class="st1" d="M21,58c0.3,2.8,2.6,5,5.5,5H26c2.9,0,5.7-2.2,6-5"/>
	<path class="st1" d="M55,46c0,2.7-2.2,5-5,5h0c-2.8,0-5-2.2-5-5V35"/>
	<path class="st1" d="M9,46c0,2.7,2.3,5,5,5h0c2.7,0,5-2.2,5-5V35"/>
</g>
<g id="Guides">
</g>
</svg>
