<?xml version="1.0" encoding="utf-8"?>
<!-- Generator: Adobe Illustrator 19.2.0, SVG Export Plug-In . SVG Version: 6.00 Build 0)  -->
<svg version="1.1" xmlns="http://www.w3.org/2000/svg" xmlns:xlink="http://www.w3.org/1999/xlink" x="0px" y="0px"
	 viewBox="0 0 64 64" style="enable-background:new 0 0 64 64;" xml:space="preserve">
<style type="text/css">
	.st0{fill:none;stroke:#1C1C1C;stroke-width:2;stroke-miterlimit:10;}
	.st1{fill:none;stroke:#1C1C1C;stroke-width:2;stroke-linecap:round;stroke-miterlimit:10;}
	.st2{fill:#1C1C1C;}
	.st3{fill:none;stroke:#1C1C1C;stroke-width:2;stroke-linecap:round;stroke-linejoin:round;stroke-miterlimit:10;}
	.st4{fill:none;stroke:#1C1C1C;stroke-width:2;stroke-linecap:round;stroke-miterlimit:10;stroke-dasharray:6;}
	.st5{fill:none;stroke:#1C1C1C;stroke-linecap:round;stroke-miterlimit:10;}
	.st6{fill:none;stroke:#1C1C1C;stroke-linecap:round;stroke-miterlimit:10;stroke-dasharray:4;}
	.st7{fill:none;stroke:#1C1C1C;stroke-width:1.5;stroke-linecap:round;stroke-miterlimit:10;}
	.st8{fill:none;stroke:#1C1C1C;stroke-width:4;stroke-linecap:round;stroke-miterlimit:10;}
	.st9{fill:none;stroke:#1C1C1C;stroke-width:5;stroke-linecap:round;stroke-miterlimit:10;}
	.st10{fill:none;stroke:#161616;stroke-width:2;stroke-linecap:round;stroke-linejoin:round;stroke-miterlimit:10;}
	.st11{fill:none;stroke:#000000;stroke-miterlimit:10;}
</style>
<g id="Designs">
	<g>
		<line class="st3" x1="32" y1="25.2" x2="32" y2="62.5"/>
		<line class="st3" x1="39" y1="26" x2="39" y2="31"/>
		<g>
			<path class="st2" d="M40,2c1,0,1.7,1,2,2l4,16.9c0,0.1,0,0.2,0,0.2c0,0.8,0,0.8,0,1.8c0,0.6-0.6,1-1,1H19c-0.4,0-1-0.4-1-1
				c0-1,0-1,0-1.9c0-0.1,0-0.2,0-0.3L22,4c0.2-1,1-2,2-2H40 M40,0H24c-2.1,0-3.5,1.8-3.9,3.5l-4,16.9C16,20.6,16,20.9,16,21.1l0,0.9
				l0,1c0,1.8,1.6,3,3,3h26c1.4,0,3-1.2,3-3l0-1v-0.8c0-0.1,0-0.2,0-0.3l0-0.1l0-0.2c0-0.1,0-0.1,0-0.2l-4-16.9c0,0,0-0.1,0-0.1
				C43.3,1.4,41.8,0,40,0L40,0z"/>
		</g>
		<line class="st3" x1="21" y1="63" x2="43" y2="63"/>
		<line class="st3" x1="23.1" y1="15" x2="25" y2="5"/>
		<line class="st3" x1="18" y1="21" x2="46" y2="21"/>
		<line class="st3" x1="39" y1="35" x2="39" y2="37"/>
	</g>
</g>
<g id="Guides">
</g>
</svg>
