<?xml version="1.0" encoding="utf-8"?>
<!-- Generator: Adobe Illustrator 19.2.0, SVG Export Plug-In . SVG Version: 6.00 Build 0)  -->
<svg version="1.1" xmlns="http://www.w3.org/2000/svg" xmlns:xlink="http://www.w3.org/1999/xlink" x="0px" y="0px"
	 viewBox="0 0 64 64" style="enable-background:new 0 0 64 64;" xml:space="preserve">
<style type="text/css">
	.st0{fill:none;stroke:#1C1C1C;stroke-width:2;stroke-linecap:round;stroke-miterlimit:10;}
	.st1{fill:#1C1C1C;}
	.st2{fill:none;stroke:#1C1C1C;stroke-width:2;stroke-linecap:round;stroke-linejoin:round;stroke-miterlimit:10;}
	.st3{fill:none;stroke:#1C1C1C;stroke-width:2;stroke-linecap:round;stroke-miterlimit:10;stroke-dasharray:2,11;}
	.st4{fill:none;stroke:#1C1C1C;stroke-width:2;stroke-miterlimit:10;}
</style>
<g id="Designs">
	<g>
		<g>
			<g>
				<path class="st1" d="M42.1,2c1,0,1.7,0,1.9,1c0,0,10.2,27,10,27c-2.5,0-38.7,0-44,0c0,0,10-27,10-27c0.2-1,1-1,2-1L42.1,2
					C42,2,42,2,42.1,2 M42.1,0L42.1,0H22c-0.9,0-3.2,0-3.9,2.4c-0.3,0.8-2.6,7.1-5,13.4c-1.3,3.4-2.5,6.7-3.4,9.3
					c-0.5,1.3-0.9,2.3-1.1,3.1c-0.6,1.6-0.8,2.1-0.2,3c0.4,0.5,1,0.9,1.6,0.9h44c0.7,0,1.3-0.3,1.6-0.9c0.6-0.9,0.6-0.9-1.3-6.1
					c-0.9-2.5-2.2-5.9-3.4-9.3c-2.4-6.3-4.7-12.6-5-13.4C45.2,0,43,0,42.1,0L42.1,0z"/>
			</g>
			<line class="st2" x1="20" y1="19" x2="25" y2="5"/>
		</g>
		<path class="st2" d="M33,63H21c0,0-4-7.1-4-13c0-2.5,1.2-3,3-3c0,0,23,0,24,0s3,0.5,3,3c0,5.9-4,13-4,13H31"/>
		<line class="st2" x1="21" y1="44" x2="43" y2="44"/>
		<line class="st2" x1="24" y1="41" x2="40" y2="41"/>
		<line class="st2" x1="30" y1="31" x2="30" y2="40"/>
		<line class="st2" x1="34" y1="31" x2="34" y2="40"/>
	</g>
</g>
<g id="Guides">
</g>
</svg>
