<svg id="Designs" xmlns="http://www.w3.org/2000/svg" viewBox="0 0 64 64"><defs><style>.cls-1{fill:none;stroke:#1c1c1c;stroke-linecap:round;stroke-miterlimit:10;stroke-width:2px;}</style></defs><title>2016_Movinga-Line-Icons-64x64-v2</title><path class="cls-1" d="M3,48V38a4.77,4.77,0,0,1,5-5H56a4.79,4.79,0,0,1,5,5V48"/><path class="cls-1" d="M35,32c0-2,0-2,0-4s-1.74-3,0-4c3-1.74,3.5,0,7,0s4-1.74,7,0c1.74,1,0,2,0,4s0,2,0,4"/><path class="cls-1" d="M15,32c0-2,0-2,0-4s-1.74-3,0-4c3-1.74,3.5,0,7,0s4-1.74,7,0c1.74,1,0,2,0,4s0,2,0,4"/><path class="cls-1" d="M51,15a12,12,0,0,0-9-4H22a11.62,11.62,0,0,0-9,4"/><line class="cls-1" x1="9" y1="49" x2="9" y2="55"/><line class="cls-1" x1="55" y1="49" x2="55" y2="55"/><line class="cls-1" x1="1" y1="49" x2="63" y2="49"/><line class="cls-1" x1="9" y1="32" x2="9" y2="9"/><line class="cls-1" x1="55" y1="32" x2="55" y2="9"/><line class="cls-1" x1="3" y1="43" x2="61" y2="43"/></svg>