<?xml version="1.0" encoding="utf-8"?>
<!-- Generator: Adobe Illustrator 19.2.0, SVG Export Plug-In . SVG Version: 6.00 Build 0)  -->
<svg version="1.1" xmlns="http://www.w3.org/2000/svg" xmlns:xlink="http://www.w3.org/1999/xlink" x="0px" y="0px"
	 viewBox="0 0 64 64" style="enable-background:new 0 0 64 64;" xml:space="preserve">
<style type="text/css">
	.st0{fill:none;stroke:#1C1C1C;stroke-width:2;stroke-linecap:round;stroke-miterlimit:10;}
	.st1{fill:#1C1C1C;}
	.st2{fill:none;stroke:#1C1C1C;stroke-width:2;stroke-linecap:round;stroke-linejoin:round;stroke-miterlimit:10;}
	.st3{fill:none;stroke:#1C1C1C;stroke-width:2;stroke-linecap:round;stroke-miterlimit:10;stroke-dasharray:2,11;}
	.st4{fill:none;stroke:#1C1C1C;stroke-width:2;stroke-miterlimit:10;}
</style>
<g id="Designs">
	<g>
		<g>
			<path class="st1" d="M44,2c1,0,2,1,2,2v56c0,1-1,2-2,2H20c-1,0-2-1-2-2V4c0-1,1-2,2-2H44 M44,0H20c-2.1,0-4,1.9-4,4v56
				c0,2.1,1.9,4,4,4h24c2.1,0,4-1.9,4-4V4C48,1.9,46.1,0,44,0L44,0z"/>
		</g>
		<path class="st0" d="M47,57c0,1-1,2-2,2H19c-1,0-2-1-2-2"/>
		<line class="st0" x1="22" y1="7" x2="24" y2="7"/>
		<line class="st0" x1="31" y1="7" x2="33" y2="7"/>
		<line class="st0" x1="40" y1="7" x2="42" y2="7"/>
		<g>
			<line class="st0" x1="22" y1="16" x2="24" y2="16"/>
			<line class="st0" x1="31" y1="16" x2="33" y2="16"/>
			<line class="st0" x1="40" y1="16" x2="42" y2="16"/>
		</g>
		<line class="st0" x1="22" y1="25" x2="24" y2="25"/>
		<line class="st0" x1="31" y1="25" x2="33" y2="25"/>
		<line class="st0" x1="40" y1="25" x2="42" y2="25"/>
		<g>
			<line class="st0" x1="22" y1="34" x2="24" y2="34"/>
			<line class="st0" x1="31" y1="34" x2="33" y2="34"/>
			<line class="st0" x1="40" y1="34" x2="42" y2="34"/>
		</g>
		<line class="st0" x1="22" y1="43" x2="24" y2="43"/>
		<line class="st0" x1="31" y1="43" x2="33" y2="43"/>
		<line class="st0" x1="40" y1="43" x2="42" y2="43"/>
		<g>
			<line class="st0" x1="22" y1="52" x2="24" y2="52"/>
			<line class="st0" x1="31" y1="52" x2="33" y2="52"/>
			<line class="st0" x1="40" y1="52" x2="42" y2="52"/>
		</g>
	</g>
</g>
<g id="Guides">
</g>
</svg>
