<?xml version="1.0" encoding="utf-8"?>
<!-- Generator: Adobe Illustrator 19.2.0, SVG Export Plug-In . SVG Version: 6.00 Build 0)  -->
<svg version="1.1" xmlns="http://www.w3.org/2000/svg" xmlns:xlink="http://www.w3.org/1999/xlink" x="0px" y="0px"
	 viewBox="0 0 64 64" style="enable-background:new 0 0 64 64;" xml:space="preserve">
<style type="text/css">
	.st0{fill:none;stroke:#1C1C1C;stroke-width:2;stroke-miterlimit:10;}
	.st1{fill:none;stroke:#1C1C1C;stroke-width:2;stroke-linecap:round;stroke-miterlimit:10;}
	.st2{fill:#1C1C1C;}
	.st3{fill:none;stroke:#1C1C1C;stroke-width:2;stroke-linecap:round;stroke-linejoin:round;stroke-miterlimit:10;}
	.st4{fill:none;stroke:#1C1C1C;stroke-width:2;stroke-linecap:round;stroke-miterlimit:10;stroke-dasharray:6;}
	.st5{fill:none;stroke:#1C1C1C;stroke-linecap:round;stroke-miterlimit:10;}
	.st6{fill:none;stroke:#1C1C1C;stroke-linecap:round;stroke-miterlimit:10;stroke-dasharray:4;}
	.st7{fill:none;stroke:#1C1C1C;stroke-width:1.5;stroke-linecap:round;stroke-miterlimit:10;}
	.st8{fill:none;stroke:#1C1C1C;stroke-width:4;stroke-linecap:round;stroke-miterlimit:10;}
	.st9{fill:none;stroke:#1C1C1C;stroke-width:5;stroke-linecap:round;stroke-miterlimit:10;}
	.st10{fill:none;stroke:#161616;stroke-width:2;stroke-linecap:round;stroke-linejoin:round;stroke-miterlimit:10;}
	.st11{fill:none;stroke:#000000;stroke-miterlimit:10;}
</style>
<g id="Designs">
	<g>
		<g>
			<path class="st2" d="M52,2c1,0,2,1,2,2v56c0,1-1,2-2,2H12c-1,0-2-1-2-2V4c0-1,1-2,2-2H52 M52,0H12C9.9,0,8,1.9,8,4v56
				c0,2.1,1.9,4,4,4h40c2.1,0,4-1.9,4-4V4C56,1.9,54.1,0,52,0L52,0z"/>
		</g>
		<path class="st1" d="M55,55c0,1-1,2-2,2H11c-1,0-2-1-2-2"/>
		<line class="st1" x1="17" y1="9" x2="21" y2="9"/>
		<line class="st1" x1="30" y1="9" x2="34" y2="9"/>
		<line class="st1" x1="43" y1="9" x2="47" y2="9"/>
		<line class="st1" x1="17" y1="19" x2="21" y2="19"/>
		<line class="st1" x1="30" y1="19" x2="34" y2="19"/>
		<line class="st1" x1="43" y1="19" x2="47" y2="19"/>
		<line class="st1" x1="17" y1="29" x2="21" y2="29"/>
		<line class="st1" x1="30" y1="29" x2="34" y2="29"/>
		<line class="st1" x1="43" y1="29" x2="47" y2="29"/>
		<line class="st1" x1="17" y1="39" x2="21" y2="39"/>
		<line class="st1" x1="30" y1="39" x2="34" y2="39"/>
		<line class="st1" x1="43" y1="39" x2="47" y2="39"/>
		<line class="st1" x1="17" y1="49" x2="21" y2="49"/>
		<line class="st1" x1="30" y1="49" x2="34" y2="49"/>
		<line class="st1" x1="43" y1="49" x2="47" y2="49"/>
	</g>
</g>
<g id="Guides">
</g>
</svg>
