<?xml version="1.0" encoding="utf-8"?>
<!-- Generator: Adobe Illustrator 19.2.0, SVG Export Plug-In . SVG Version: 6.00 Build 0)  -->
<svg version="1.1" xmlns="http://www.w3.org/2000/svg" xmlns:xlink="http://www.w3.org/1999/xlink" x="0px" y="0px"
	 viewBox="0 0 64 64" style="enable-background:new 0 0 64 64;" xml:space="preserve">
<style type="text/css">
	.st0{fill:none;stroke:#1C1C1C;stroke-width:2;stroke-linecap:round;stroke-miterlimit:10;}
	.st1{fill:#1C1C1C;}
	.st2{fill:none;stroke:#1C1C1C;stroke-width:2;stroke-linecap:round;stroke-linejoin:round;stroke-miterlimit:10;}
	.st3{fill:none;stroke:#1C1C1C;stroke-width:2;stroke-linecap:round;stroke-miterlimit:10;stroke-dasharray:2,11;}
	.st4{fill:none;stroke:#1C1C1C;stroke-width:2;stroke-miterlimit:10;}
</style>
<g id="Designs">
	<g>
		<g>
			<circle class="st0" cx="56.5" cy="17.5" r="2.5"/>
			<g>
				<line class="st0" x1="7" y1="52" x2="7" y2="55"/>
				<line class="st0" x1="57" y1="52" x2="57" y2="55"/>
			</g>
			<g>
				<path class="st1" d="M60.9,10c0.6,0,1.1,0.5,1.1,1.1V49c0,0.7-0.3,1-1,1H3c-0.7,0-1-0.3-1-1V11.1C2,10.5,2.5,10,3.1,10H61
					 M60.9,8H3.1C1.4,8,0,9.4,0,11.1V49c0,1.7,1.2,3,3,3h58c1.8,0,3-1.2,3-3V11.1C64,9.4,62.6,8,60.9,8L60.9,8z"/>
			</g>
			<line class="st0" x1="50" y1="9" x2="50" y2="51"/>
			<path class="st2" d="M46,37v8c0,0-41,0.2-41,0V15h41v8"/>
			<g>
				<path class="st2" d="M46,23c0,0-4,1.1-4,7l0,0"/>
				<path class="st2" d="M46,37c0,0-4-1.1-4-7l0,0"/>
			</g>
			<line class="st2" x1="54" y1="24" x2="59" y2="24"/>
			<line class="st2" x1="54" y1="27" x2="59" y2="27"/>
			<rect x="54" y="41" class="st2" width="5" height="4"/>
		</g>
		<line class="st2" x1="19" y1="23" x2="14" y2="30"/>
		<line class="st2" x1="24" y1="23" x2="16" y2="34"/>
	</g>
</g>
<g id="Guides">
</g>
</svg>
