<?xml version="1.0" encoding="utf-8"?>
<!-- Generator: Adobe Illustrator 19.1.0, SVG Export Plug-In . SVG Version: 6.00 Build 0)  -->
<svg version="1.1" xmlns="http://www.w3.org/2000/svg" xmlns:xlink="http://www.w3.org/1999/xlink" x="0px" y="0px"
	 viewBox="0 0 48 48" style="enable-background:new 0 0 48 48;" xml:space="preserve">
<style type="text/css">
	.st0{fill:#1C1C1C;}
</style>
<g id="Icons">
	<path class="st0" d="M38.1,23.5c-0.3-0.2-0.8-0.2-1.1,0.1c-0.3,0.2-0.5,0.5-0.5,0.9c-1,7.7-2.3,17-2.5,19c0,0.3-0.2,0.6-0.5,0.7
		c-1.2,0.8-4.4,1.8-9.6,1.8c-5.2,0-8.4-1.1-9.6-1.8c-0.2-0.2-0.4-0.4-0.5-0.7c-0.3-2-1.5-11.4-2.6-19.1c0-0.3-0.2-0.6-0.4-0.7
		c0,0,0,0,0,0c-0.3-0.2-0.7-0.3-1.1-0.1c-0.3,0.2-0.5,0.6-0.5,1c1.2,8.6,2.6,19.5,2.6,19.6c0.3,2.3,5.4,4,12,4c6.6,0,11.6-1.7,12-4
		c0,0,1.5-10.9,2.6-19.5C38.6,24.1,38.4,23.7,38.1,23.5z"/>
	<path class="st0" d="M38.6,10.2c-0.4-2.1-2.2-3.7-4.3-4c-0.9-1.3-2.4-2.1-4.1-2.1c-0.3,0-0.5,0-0.8,0.1c-0.8-2.4-3-4.2-5.7-4.2
		c-1.8,0-3.4,0.8-4.5,2.1c-0.8,0.2-1.5,0.5-2,1.1C16.8,3,16.4,3,15.9,3c-2.8,0-5,2.2-5,5c0,0.3,0,0.6,0.1,0.9
		c-0.4,0.4-0.6,1-0.8,1.5c-0.7,0.3-1.3,0.9-1.7,1.6c-0.2,0.3-0.3,0.6-0.4,0.9c0,0,0,0,0,0c-0.1,0.4,0,0.7,0.2,1
		c0.2,0.3,0.6,0.4,1,0.4c0,0,0,0,0.1,0c0.3,0,0.6-0.3,0.6-0.6c0.1-0.4,0.3-0.8,0.6-1.1c0.3-0.3,0.6-0.4,1-0.5c0.2,0,0.4-0.2,0.4-0.4
		c0.1-0.8,0.5-1.4,1-1.9c0.2-0.1,0.2-0.4,0.2-0.6C13,8.8,12.9,8.4,12.9,8c0-1.7,1.3-3,3-3c0.5,0,1.1,0.1,1.5,0.4
		c0.1,0.1,0.3,0.1,0.4,0.1c0.1-0.1,0.2-0.1,0.3-0.3C18.5,4.5,19.2,4,20,4c0.2,0,0.3-0.1,0.4-0.2C21.1,2.7,22.3,2,23.7,2
		c2.5,0,4.3,2.2,4,4.5c0,0.1,0,0.2,0.1,0.3c0.1,0.1,0.2,0.1,0.3,0.1h0c0.1,0,0.2-0.1,0.3-0.1c0.5-0.4,1.1-0.6,1.8-0.6
		c1.2,0,2.3,0.7,2.7,1.8c0.1,0.2,0.3,0.3,0.5,0.3c2-0.2,3.3,1.6,3.3,2.8c0,0.2,0.1,0.3,0.2,0.4c0.4,0.3,0.7,0.6,0.9,1.1
		c0.1,0.3,0.1,0.5,0.2,0.7c0,0.5,0.4,0.9,0.8,1l0.1,0c0.2,0,0.5,0,0.7-0.2c0.2-0.2,0.3-0.4,0.3-0.6c0-0.1,0-0.2,0-0.2
		C39.9,12,39.4,10.9,38.6,10.2z"/>
	<path class="st0" d="M14,15.1c-0.3-0.1-0.6,0-0.8,0.2c-0.6,0.6-0.3,1.6,0.5,1.7c2.5,0.5,5.6,0.9,9.1,0.9c0.5,0,1,0,1.5,0h0.2
		c0.4,0,0.8,0,1.2,0c1.2,0,8.7-0.4,9.5-1.1c0.4-0.3,0.6-1.1,0-1.5c-0.2-0.2-0.5-0.3-0.8-0.2c0,0-0.2,0-0.5,0.1
		c-0.3-1.7-1.8-3.1-3.6-3.2c-1.1-2.4-3.6-4-6.3-4c-1.9,0-3.7,0.8-5,2.1c-0.3-0.1-0.6-0.1-1-0.1c-2.2,0-4,1.8-4,4
		c0,0.4,0.1,0.8,0.2,1.1C14.1,15.1,14.1,15.1,14,15.1L14,15.1z M15.9,14c0-1.1,0.9-2,2-2c0.6,0,1.2,0.3,1.5,0.7
		c0.8-1.6,2.5-2.7,4.5-2.7c2.5,0,4.6,1.9,4.9,4.3c0.3-0.2,0.7-0.3,1.1-0.3c0.9,0,1.7,0.7,1.9,1.5c-1.6,0.2-4,0.4-6.9,0.5
		c-0.2,0-0.4,0-0.6,0h-0.2c-0.3,0-0.5,0-0.8,0c-2.6,0-4.8-0.2-6.7-0.4C16.2,15.2,15.9,14.6,15.9,14z"/>
	<path class="st0" d="M38.4,16c-0.3,0-0.6,0.1-0.8,0.4c0,0,0,0,0,0c-0.1,0.1-0.1,0.2-0.2,0.3C35.7,21,30.1,24,24,24
		c-5.3,0-11.5-2.4-13.5-7.2c-0.1-0.2-0.1-0.3-0.2-0.4C10.1,16.1,9.8,16,9.5,16c-0.5,0-0.9,0.3-1,0.9c0,0.9,0.8,2.4,2.3,3.9
		C13.3,23.4,17.8,26,24,26c5.9,0,10.4-2.5,13-5c1.5-1.5,2.4-3,2.4-4C39.3,16.4,38.9,16,38.4,16z"/>
</g>
<g id="Doc-Label">
</g>
</svg>
