<?xml version="1.0" encoding="utf-8"?>
<!-- Generator: Adobe Illustrator 19.2.0, SVG Export Plug-In . SVG Version: 6.00 Build 0)  -->
<svg version="1.1" xmlns="http://www.w3.org/2000/svg" xmlns:xlink="http://www.w3.org/1999/xlink" x="0px" y="0px"
	 viewBox="0 0 64 64" style="enable-background:new 0 0 64 64;" xml:space="preserve">
<style type="text/css">
	.st0{fill:none;stroke:#1C1C1C;stroke-width:2;stroke-miterlimit:10;}
	.st1{fill:none;stroke:#1C1C1C;stroke-width:2;stroke-linecap:round;stroke-miterlimit:10;}
	.st2{fill:#1C1C1C;}
	.st3{fill:none;stroke:#1C1C1C;stroke-width:2;stroke-linecap:round;stroke-linejoin:round;stroke-miterlimit:10;}
	.st4{fill:none;stroke:#1C1C1C;stroke-width:2;stroke-linecap:round;stroke-miterlimit:10;stroke-dasharray:6;}
	.st5{fill:none;stroke:#1C1C1C;stroke-linecap:round;stroke-miterlimit:10;}
	.st6{fill:none;stroke:#1C1C1C;stroke-linecap:round;stroke-miterlimit:10;stroke-dasharray:4;}
	.st7{fill:none;stroke:#1C1C1C;stroke-width:1.5;stroke-linecap:round;stroke-miterlimit:10;}
	.st8{fill:none;stroke:#1C1C1C;stroke-width:4;stroke-linecap:round;stroke-miterlimit:10;}
	.st9{fill:none;stroke:#1C1C1C;stroke-width:5;stroke-linecap:round;stroke-miterlimit:10;}
	.st10{fill:none;stroke:#161616;stroke-width:2;stroke-linecap:round;stroke-linejoin:round;stroke-miterlimit:10;}
	.st11{fill:none;stroke:#000000;stroke-miterlimit:10;}
</style>
<g id="Designs">
	<g>
		<path class="st1" d="M44,48l-2,13c0,1.1-0.9,2-2,2H24c-1.1,0-2-0.9-2-2l-2-13"/>
		<line class="st1" x1="32" y1="42" x2="32" y2="1"/>
		<path class="st1" d="M36,31c0,0-0.9-10,9-10C45,21,46,31,36,31z"/>
		<path class="st1" d="M46,47H18c-0.6,0-1-0.5-1-1v-2c0-0.6,0.5-1,1-1h28c0.6,0,1,0.5,1,1v2C47,46.5,46.5,47,46,47z"/>
		<path class="st1" d="M28,31c0,0,0.9-10-9-10C19,21,18,31,28,31z"/>
		<path class="st1" d="M35.9,15c0,0-0.7-7.9,7.1-7.9C43,7.1,43.8,15,35.9,15z"/>
		<path class="st1" d="M28,15c0,0,0.7-7.8-7-7.8C21,7.2,20.2,15,28,15z"/>
	</g>
</g>
<g id="Guides">
</g>
</svg>
