<?xml version="1.0" encoding="utf-8"?>
<!-- Generator: Adobe Illustrator 19.2.0, SVG Export Plug-In . SVG Version: 6.00 Build 0)  -->
<svg version="1.1" xmlns="http://www.w3.org/2000/svg" xmlns:xlink="http://www.w3.org/1999/xlink" x="0px" y="0px"
	 viewBox="0 0 64 64" style="enable-background:new 0 0 64 64;" xml:space="preserve">
<style type="text/css">
	.st0{fill:none;stroke:#1C1C1C;stroke-width:2;stroke-linecap:round;stroke-miterlimit:10;}
	.st1{fill:#1C1C1C;}
	.st2{fill:none;stroke:#1C1C1C;stroke-width:2;stroke-linecap:round;stroke-linejoin:round;stroke-miterlimit:10;}
	.st3{fill:none;stroke:#1C1C1C;stroke-width:2;stroke-linecap:round;stroke-miterlimit:10;stroke-dasharray:2,11;}
	.st4{fill:none;stroke:#1C1C1C;stroke-width:2;stroke-miterlimit:10;}
</style>
<g id="Designs">
	<g>
		<line class="st2" x1="44" y1="59" x2="22" y2="59"/>
		<path class="st2" d="M16,39c0-2.3,1.2-3.1,3-3l36,7c2.2,0.4,2,1.6,2,3v3"/>
		<circle class="st2" cx="10" cy="54" r="9"/>
		<circle class="st2" cx="10" cy="54" r="2"/>
		<polyline class="st2" points="12,41 6,1 1,1 		"/>
		<circle class="st2" cx="56" cy="56" r="7"/>
		<circle class="st2" cx="56" cy="56" r="1.9"/>
		<path class="st2" d="M4,43c6.4-3.2,12,0,12,0"/>
		<path class="st2" d="M26,37c0-2.5,4.6-4.8,10-3c7.1,2.4,13,5,13,7"/>
	</g>
</g>
<g id="Guides">
</g>
</svg>
