<?xml version="1.0" encoding="utf-8"?>
<!-- Generator: Adobe Illustrator 19.2.0, SVG Export Plug-In . SVG Version: 6.00 Build 0)  -->
<svg version="1.1" xmlns="http://www.w3.org/2000/svg" xmlns:xlink="http://www.w3.org/1999/xlink" x="0px" y="0px"
	 viewBox="0 0 64 64" style="enable-background:new 0 0 64 64;" xml:space="preserve">
<style type="text/css">
	.st0{fill:none;stroke:#1C1C1C;stroke-width:2;stroke-linecap:round;stroke-miterlimit:10;}
	.st1{fill:#1C1C1C;}
	.st2{fill:none;stroke:#1C1C1C;stroke-width:2;stroke-linecap:round;stroke-linejoin:round;stroke-miterlimit:10;}
	.st3{fill:none;stroke:#1C1C1C;stroke-width:2;stroke-linecap:round;stroke-miterlimit:10;stroke-dasharray:2,11;}
	.st4{fill:none;stroke:#1C1C1C;stroke-width:2;stroke-miterlimit:10;}
</style>
<g id="Designs">
	<g>
		<path class="st0" d="M46.1,63H17.9c-0.5,0-0.9-0.4-0.9-0.9V1.9C17,1.4,17.4,1,17.9,1h28.3C46.6,1,47,1.4,47,1.9v60.3
			C47,62.6,46.6,63,46.1,63z"/>
		<line class="st0" x1="21" y1="15" x2="43" y2="15"/>
		<line class="st0" x1="21" y1="25" x2="43" y2="25"/>
		<line class="st0" x1="21" y1="35" x2="43" y2="35"/>
		<line class="st0" x1="21" y1="45" x2="43" y2="45"/>
		<line class="st0" x1="21" y1="55" x2="43" y2="55"/>
		<line class="st2" x1="23" y1="8" x2="23" y2="14"/>
		<line class="st2" x1="25.1" y1="8.2" x2="26.9" y2="13.8"/>
		<line class="st2" x1="30" y1="8" x2="30" y2="14"/>
		<line class="st2" x1="33" y1="8" x2="33" y2="14"/>
		<line class="st2" x1="41" y1="28" x2="41" y2="34"/>
		<line class="st2" x1="38.9" y1="28.2" x2="37.1" y2="33.8"/>
		<line class="st2" x1="34" y1="28" x2="34" y2="34"/>
		<line class="st2" x1="31" y1="28" x2="31" y2="34"/>
		<line class="st2" x1="28" y1="28" x2="26" y2="34"/>
		<line class="st2" x1="23" y1="48" x2="23" y2="54"/>
		<line class="st2" x1="25.1" y1="48.2" x2="26.9" y2="53.8"/>
		<line class="st2" x1="30" y1="48" x2="30" y2="54"/>
		<line class="st2" x1="33" y1="48" x2="33" y2="54"/>
		<line class="st2" x1="36" y1="48" x2="36" y2="54"/>
		<line class="st2" x1="38.1" y1="48.2" x2="39.9" y2="53.8"/>
	</g>
</g>
<g id="Guides">
</g>
</svg>
