<?xml version="1.0" encoding="utf-8"?>
<!-- Generator: Adobe Illustrator 19.2.0, SVG Export Plug-In . SVG Version: 6.00 Build 0)  -->
<svg version="1.1" xmlns="http://www.w3.org/2000/svg" xmlns:xlink="http://www.w3.org/1999/xlink" x="0px" y="0px"
	 viewBox="0 0 64 64" style="enable-background:new 0 0 64 64;" xml:space="preserve">
<style type="text/css">
	.st0{fill:none;stroke:#1C1C1C;stroke-width:2;stroke-linecap:round;stroke-miterlimit:10;}
	.st1{fill:#1C1C1C;}
	.st2{fill:none;stroke:#1C1C1C;stroke-width:2;stroke-linecap:round;stroke-linejoin:round;stroke-miterlimit:10;}
	.st3{fill:none;stroke:#1C1C1C;stroke-width:2;stroke-linecap:round;stroke-miterlimit:10;stroke-dasharray:2,11;}
	.st4{fill:none;stroke:#1C1C1C;stroke-width:2;stroke-miterlimit:10;}
</style>
<g id="Designs">
	<g>
		<path class="st0" d="M54.1,63H9.9C9.4,63,9,62.6,9,62.1V1.9C9,1.4,9.4,1,9.9,1h44.3C54.6,1,55,1.4,55,1.9v60.3
			C55,62.6,54.6,63,54.1,63z"/>
		<line class="st0" x1="9" y1="14" x2="28" y2="14"/>
		<line class="st0" x1="9" y1="26" x2="28" y2="26"/>
		<line class="st0" x1="32" y1="5" x2="32" y2="59"/>
		<line class="st0" x1="9" y1="38" x2="28" y2="38"/>
		<line class="st0" x1="9" y1="50" x2="28" y2="50"/>
		<line class="st0" x1="36" y1="14" x2="55" y2="14"/>
		<line class="st0" x1="36" y1="26" x2="55" y2="26"/>
		<line class="st0" x1="36" y1="38" x2="55" y2="38"/>
		<line class="st0" x1="36" y1="50" x2="55" y2="50"/>
		<line class="st0" x1="14" y1="5" x2="18" y2="14"/>
		<line class="st0" x1="18" y1="5" x2="22" y2="14"/>
		<line class="st0" x1="12" y1="5" x2="12" y2="13"/>
		<line class="st0" x1="47" y1="5" x2="49" y2="14"/>
		<line class="st0" x1="54" y1="5" x2="50" y2="14"/>
		<line class="st0" x1="45" y1="5" x2="45" y2="13"/>
		<line class="st0" x1="42" y1="5" x2="42" y2="13"/>
		<line class="st0" x1="41" y1="5" x2="37" y2="14"/>
		<line class="st0" x1="47" y1="30" x2="43" y2="38"/>
		<line class="st0" x1="43" y1="30" x2="39" y2="38"/>
		<line class="st0" x1="49" y1="30" x2="49" y2="38"/>
		<line class="st0" x1="52" y1="30" x2="52" y2="38"/>
		<line class="st0" x1="12" y1="18" x2="12" y2="26"/>
		<line class="st0" x1="19" y1="18" x2="19" y2="26"/>
		<line class="st0" x1="13.9" y1="18" x2="16" y2="26"/>
		<line class="st0" x1="17" y1="42" x2="15" y2="50"/>
		<line class="st0" x1="10" y1="42" x2="14" y2="50"/>
		<line class="st0" x1="19" y1="42" x2="19" y2="50"/>
		<line class="st0" x1="22" y1="42" x2="22" y2="50"/>
		<line class="st0" x1="23" y1="42" x2="27" y2="50"/>
		<line class="st0" x1="45" y1="54" x2="45" y2="62"/>
		<line class="st0" x1="52" y1="54" x2="52" y2="62"/>
		<line class="st0" x1="46.9" y1="54" x2="49" y2="62"/>
		<line class="st0" x1="43" y1="54" x2="39" y2="62"/>
		<line class="st0" x1="22" y1="54" x2="22" y2="62"/>
		<line class="st0" x1="19" y1="54" x2="19" y2="62"/>
		<line class="st0" x1="18" y1="54" x2="14" y2="63"/>
	</g>
</g>
<g id="Guides">
</g>
</svg>
