<?xml version="1.0" encoding="utf-8"?>
<!-- Generator: Adobe Illustrator 19.2.0, SVG Export Plug-In . SVG Version: 6.00 Build 0)  -->
<svg version="1.1" xmlns="http://www.w3.org/2000/svg" xmlns:xlink="http://www.w3.org/1999/xlink" x="0px" y="0px"
	 viewBox="0 0 64 64" style="enable-background:new 0 0 64 64;" xml:space="preserve">
<style type="text/css">
	.st0{fill:none;stroke:#1C1C1C;stroke-width:2;stroke-miterlimit:10;}
	.st1{fill:none;stroke:#1C1C1C;stroke-width:2;stroke-linecap:round;stroke-miterlimit:10;}
	.st2{fill:#1C1C1C;}
	.st3{fill:none;stroke:#1C1C1C;stroke-width:2;stroke-linecap:round;stroke-linejoin:round;stroke-miterlimit:10;}
	.st4{fill:none;stroke:#1C1C1C;stroke-width:2;stroke-linecap:round;stroke-miterlimit:10;stroke-dasharray:6;}
	.st5{fill:none;stroke:#1C1C1C;stroke-linecap:round;stroke-miterlimit:10;}
	.st6{fill:none;stroke:#1C1C1C;stroke-linecap:round;stroke-miterlimit:10;stroke-dasharray:4;}
	.st7{fill:none;stroke:#1C1C1C;stroke-width:1.5;stroke-linecap:round;stroke-miterlimit:10;}
	.st8{fill:none;stroke:#1C1C1C;stroke-width:4;stroke-linecap:round;stroke-miterlimit:10;}
	.st9{fill:none;stroke:#1C1C1C;stroke-width:5;stroke-linecap:round;stroke-miterlimit:10;}
	.st10{fill:none;stroke:#161616;stroke-width:2;stroke-linecap:round;stroke-linejoin:round;stroke-miterlimit:10;}
	.st11{fill:none;stroke:#000000;stroke-miterlimit:10;}
</style>
<g id="Designs">
	<g>
		<path class="st2" d="M32,14c9.9,0,18,8.1,18,18s-8.1,18-18,18s-18-8.1-18-18S22.1,14,32,14 M32,12c-11,0-20,9-20,20s9,20,20,20
			s20-9,20-20S43,12,32,12L32,12z"/>
	</g>
	<g>
		<path class="st2" d="M32,9c12.7,0,23,10.3,23,23S44.7,55,32,55S9,44.7,9,32S19.3,9,32,9 M32,7C18.2,7,7,18.2,7,32s11.2,25,25,25
			s25-11.2,25-25S45.8,7,32,7L32,7z"/>
	</g>
	<g>
		<path class="st2" d="M32,2c16.6,0,30,13.4,30,30S48.6,62,32,62S2,48.6,2,32S15.4,2,32,2 M32,0C14.4,0,0,14.4,0,32s14.4,32,32,32
			s32-14.4,32-32S49.6,0,32,0L32,0z"/>
	</g>
	<g>
		<line class="st3" x1="32" y1="37" x2="32" y2="51"/>
		<line class="st3" x1="32" y1="14" x2="32" y2="27"/>
		<line class="st3" x1="27" y1="34" x2="16" y2="41"/>
		<line class="st3" x1="48" y1="23" x2="37" y2="30"/>
		<line class="st3" x1="37" y1="34" x2="48" y2="41"/>
		<line class="st3" x1="16" y1="23" x2="27" y2="30"/>
	</g>
	<g>
		<path class="st2" d="M32,28c2.2,0,4,1.8,4,4s-1.8,4-4,4s-4-1.8-4-4S29.8,28,32,28 M32,26c-3.3,0-6,2.7-6,6s2.7,6,6,6s6-2.7,6-6
			S35.3,26,32,26L32,26z"/>
	</g>
</g>
<g id="Guides">
</g>
</svg>
