<?xml version="1.0" encoding="utf-8"?>
<!-- Generator: Adobe Illustrator 19.2.0, SVG Export Plug-In . SVG Version: 6.00 Build 0)  -->
<svg version="1.1" xmlns="http://www.w3.org/2000/svg" xmlns:xlink="http://www.w3.org/1999/xlink" x="0px" y="0px"
	 viewBox="0 0 64 64" style="enable-background:new 0 0 64 64;" xml:space="preserve">
<style type="text/css">
	.st0{fill:none;stroke:#1C1C1C;stroke-width:2;stroke-linecap:round;stroke-miterlimit:10;}
	.st1{fill:#1C1C1C;}
	.st2{fill:none;stroke:#1C1C1C;stroke-width:2;stroke-linecap:round;stroke-linejoin:round;stroke-miterlimit:10;}
	.st3{fill:none;stroke:#1C1C1C;stroke-width:2;stroke-linecap:round;stroke-miterlimit:10;stroke-dasharray:2,11;}
	.st4{fill:none;stroke:#1C1C1C;stroke-width:2;stroke-miterlimit:10;}
</style>
<g id="Designs">
	<g>
		<path class="st0" d="M46,63H18c-1,0-1-0.6-1-1V2c0-0.4,0.2-1,1-1h28c1.1,0,1,0.6,1,1v60C47,62.4,46.8,63,46,63z"/>
		<line class="st0" x1="17" y1="48" x2="47" y2="48"/>
		<line class="st0" x1="21" y1="7" x2="43" y2="7"/>
		<line class="st0" x1="24" y1="7" x2="24" y2="10"/>
		<line class="st0" x1="32" y1="7" x2="32" y2="10"/>
		<line class="st0" x1="40" y1="7" x2="40" y2="10"/>
		<path class="st0" d="M26,37V16c0-1.1-0.9-2-2-2h0c-1.1,0-2,0.9-2,2v21C22,37,25.9,37,26,37z"/>
		<line class="st0" x1="24" y1="37" x2="24" y2="48"/>
		<path class="st0" d="M34,37V16c0-1.1-0.9-2-2-2h0c-1.1,0-2,0.9-2,2v21C30,37,33.9,37,34,37z"/>
		<line class="st0" x1="32" y1="37" x2="32" y2="48"/>
		<path class="st0" d="M42,37V16c0-1.1-0.9-2-2-2h0c-1.1,0-2,0.9-2,2v21C38,37,41.9,37,42,37z"/>
		<line class="st0" x1="40" y1="37" x2="40" y2="48"/>
	</g>
</g>
<g id="Guides">
</g>
</svg>
