<?xml version="1.0" encoding="utf-8"?>
<!-- Generator: Adobe Illustrator 19.2.0, SVG Export Plug-In . SVG Version: 6.00 Build 0)  -->
<svg version="1.1" xmlns="http://www.w3.org/2000/svg" xmlns:xlink="http://www.w3.org/1999/xlink" x="0px" y="0px"
	 viewBox="0 0 64 64" style="enable-background:new 0 0 64 64;" xml:space="preserve">
<style type="text/css">
	.st0{fill:none;stroke:#1C1C1C;stroke-width:2;stroke-miterlimit:10;}
	.st1{fill:none;stroke:#1C1C1C;stroke-width:2;stroke-linecap:round;stroke-miterlimit:10;}
	.st2{fill:#1C1C1C;}
	.st3{fill:none;stroke:#1C1C1C;stroke-width:2;stroke-linecap:round;stroke-linejoin:round;stroke-miterlimit:10;}
	.st4{fill:none;stroke:#1C1C1C;stroke-width:2;stroke-linecap:round;stroke-miterlimit:10;stroke-dasharray:6;}
	.st5{fill:none;stroke:#1C1C1C;stroke-linecap:round;stroke-miterlimit:10;}
	.st6{fill:none;stroke:#1C1C1C;stroke-linecap:round;stroke-miterlimit:10;stroke-dasharray:4;}
	.st7{fill:none;stroke:#1C1C1C;stroke-width:1.5;stroke-linecap:round;stroke-miterlimit:10;}
	.st8{fill:none;stroke:#1C1C1C;stroke-width:4;stroke-linecap:round;stroke-miterlimit:10;}
	.st9{fill:none;stroke:#1C1C1C;stroke-width:5;stroke-linecap:round;stroke-miterlimit:10;}
	.st10{fill:none;stroke:#161616;stroke-width:2;stroke-linecap:round;stroke-linejoin:round;stroke-miterlimit:10;}
	.st11{fill:none;stroke:#000000;stroke-miterlimit:10;}
</style>
<g id="Designs">
	<g>
		<line class="st3" x1="32" y1="1.3" x2="32" y2="58"/>
		<circle class="st3" cx="23" cy="29" r="2"/>
		<g>
			<g>
				<path class="st2" d="M52,2c0.8,0,2,1.1,2,2v52c0,1.1-0.9,2-2,2H12c-0.8,0-2-1.1-2-2V4c0-1.1,0.9-2,2-2H52 M52,0H12
					C9.8,0,8,1.8,8,4v52c0,1.9,2.1,4,4,4h40c2.2,0,4-1.8,4-4V4C56,2.1,53.9,0,52,0L52,0z"/>
			</g>
		</g>
		<g>
			<line class="st3" x1="15" y1="59" x2="15" y2="63"/>
			<line class="st3" x1="49" y1="59" x2="49" y2="63"/>
		</g>
		<circle class="st3" cx="41" cy="29" r="2"/>
	</g>
</g>
<g id="Guides">
</g>
</svg>
