<svg id="Designs" xmlns="http://www.w3.org/2000/svg" viewBox="0 0 64 64"><defs><style>.cls-1{fill:none;stroke:#1c1c1c;stroke-linecap:round;stroke-miterlimit:10;stroke-width:2px;}.cls-2{fill:#1c1c1c;}</style></defs><title>2016_Movinga-Line-Icons-64x64-v2</title><line class="cls-1" x1="9" y1="39" x2="5" y2="47"/><line class="cls-1" x1="55" y1="39" x2="61" y2="47"/><path class="cls-2" d="M61,18a1.08,1.08,0,0,1,1,1V37a1.08,1.08,0,0,1-1,1H3a1.08,1.08,0,0,1-1-1V19a1.08,1.08,0,0,1,1-1H61m0-2H3a3.08,3.08,0,0,0-3,3V37a3.08,3.08,0,0,0,3,3H61a3.08,3.08,0,0,0,3-3V19a3.08,3.08,0,0,0-3-3h0Z"/><line class="cls-1" x1="21" y1="18" x2="21" y2="38"/><line class="cls-1" x1="43" y1="18" x2="43" y2="38"/><line class="cls-1" x1="21" y1="25" x2="42" y2="25"/><line class="cls-1" x1="49" y1="21" x2="57" y2="21"/><line class="cls-1" x1="49" y1="35" x2="57" y2="35"/><line class="cls-1" x1="7" y1="21" x2="15" y2="21"/><line class="cls-1" x1="7" y1="35" x2="15" y2="35"/></svg>