<?xml version="1.0" encoding="utf-8"?>
<!-- Generator: Adobe Illustrator 19.2.0, SVG Export Plug-In . SVG Version: 6.00 Build 0)  -->
<svg version="1.1" xmlns="http://www.w3.org/2000/svg" xmlns:xlink="http://www.w3.org/1999/xlink" x="0px" y="0px"
	 viewBox="0 0 64 64" style="enable-background:new 0 0 64 64;" xml:space="preserve">
<style type="text/css">
	.st0{fill:none;stroke:#1C1C1C;stroke-width:2;stroke-linecap:round;stroke-miterlimit:10;}
	.st1{fill:#1C1C1C;}
	.st2{fill:none;stroke:#1C1C1C;stroke-width:2;stroke-linecap:round;stroke-linejoin:round;stroke-miterlimit:10;}
	.st3{fill:none;stroke:#1C1C1C;stroke-width:2;stroke-linecap:round;stroke-miterlimit:10;stroke-dasharray:2,11;}
	.st4{fill:none;stroke:#1C1C1C;stroke-width:2;stroke-miterlimit:10;}
</style>
<g id="Designs">
	<g>
		<path class="st4" d="M1,27c0-1.1,0.9-2,2-2l43,0"/>
		<line class="st4" x1="45" y1="29" x2="19" y2="29"/>
		<line class="st0" x1="46" y1="41" x2="62.3" y2="41"/>
		<path class="st4" d="M41,25l20,0c1.1,0,2,0,2,1.2"/>
		<path class="st2" d="M45,25.6L45,55c0,0,18-0.1,18,0l0-28.7"/>
		<line class="st0" x1="46" y1="49" x2="62.3" y2="49"/>
		<g>
			<line class="st0" x1="52" y1="29" x2="56" y2="29"/>
			<line class="st0" x1="52" y1="37" x2="56" y2="37"/>
			<line class="st0" x1="52" y1="45" x2="56" y2="45"/>
		</g>
		<line class="st0" x1="46.3" y1="33" x2="62.7" y2="33"/>
		<g>
			<line class="st0" x1="18.1" y1="40.9" x2="1.8" y2="41"/>
			<polyline class="st2" points="1,27 1,55 19,55 19,26 			"/>
			<line class="st0" x1="18.3" y1="48.9" x2="2" y2="49"/>
			<g>
				<line class="st0" x1="12" y1="29" x2="8" y2="29"/>
				<line class="st0" x1="12" y1="37" x2="8" y2="37"/>
				<line class="st0" x1="12" y1="45" x2="8" y2="45"/>
			</g>
			<line class="st0" x1="17.9" y1="32.9" x2="1.6" y2="33"/>
		</g>
		<path class="st2" d="M57.2,9.1L7,9c-1.1,0-2,0.9-2,2V17l-2,3v4.9"/>
		<path class="st2" d="M57,9c1.1,0,2,0.9,2,2v6l2,3v5"/>
		<line class="st2" x1="9" y1="17" x2="55" y2="17"/>
		<line class="st2" x1="20" y1="52" x2="45" y2="52"/>
	</g>
</g>
<g id="Guides">
</g>
</svg>
