<?xml version="1.0" encoding="utf-8"?>
<!-- Generator: Adobe Illustrator 19.2.0, SVG Export Plug-In . SVG Version: 6.00 Build 0)  -->
<svg version="1.1" xmlns="http://www.w3.org/2000/svg" xmlns:xlink="http://www.w3.org/1999/xlink" x="0px" y="0px"
	 viewBox="0 0 64 64" style="enable-background:new 0 0 64 64;" xml:space="preserve">
<style type="text/css">
	.st0{fill:none;stroke:#1C1C1C;stroke-width:2;stroke-miterlimit:10;}
	.st1{fill:none;stroke:#1C1C1C;stroke-width:2;stroke-linecap:round;stroke-miterlimit:10;}
	.st2{fill:#1C1C1C;}
	.st3{fill:none;stroke:#1C1C1C;stroke-width:2;stroke-linecap:round;stroke-linejoin:round;stroke-miterlimit:10;}
	.st4{fill:none;stroke:#1C1C1C;stroke-width:2;stroke-linecap:round;stroke-miterlimit:10;stroke-dasharray:6;}
	.st5{fill:none;stroke:#1C1C1C;stroke-linecap:round;stroke-miterlimit:10;}
	.st6{fill:none;stroke:#1C1C1C;stroke-linecap:round;stroke-miterlimit:10;stroke-dasharray:4;}
	.st7{fill:none;stroke:#1C1C1C;stroke-width:1.5;stroke-linecap:round;stroke-miterlimit:10;}
	.st8{fill:none;stroke:#1C1C1C;stroke-width:4;stroke-linecap:round;stroke-miterlimit:10;}
	.st9{fill:none;stroke:#1C1C1C;stroke-width:5;stroke-linecap:round;stroke-miterlimit:10;}
	.st10{fill:none;stroke:#161616;stroke-width:2;stroke-linecap:round;stroke-linejoin:round;stroke-miterlimit:10;}
	.st11{fill:none;stroke:#000000;stroke-miterlimit:10;}
</style>
<g id="Designs">
	<g>
		<path class="st3" d="M9,26.1V22C9,11.1,16.1,9,23.8,9H40c8,0,15,2.3,15,13v4"/>
		<path class="st3" d="M59,36v13c0,1.1-0.8,2-2,2H7c-1.2,0-2-1.2-2-2V36l0,0c-2,0-4-2-4-5c0-3,2.3-5.2,5.3-5.2S12,28,12,31v9
			c0,1.9,1.7,3,2.9,3H49c1.3,0,3-1.3,3-3l0-9c0-3,2.7-5.2,5.7-5.2c3,0,5.3,2.2,5.3,5.2C63,34,61,36,59,36"/>
		<line class="st3" x1="9" y1="55" x2="9" y2="52"/>
		<line class="st3" x1="55" y1="51.9" x2="55" y2="55"/>
		<path class="st3" d="M12,38c0-2.9,2.1-5,5-5h30c3,0,5,2,5,5"/>
		<line class="st3" x1="57" y1="31" x2="58" y2="31"/>
		<line class="st3" x1="6" y1="31" x2="7" y2="31"/>
	</g>
</g>
<g id="Guides">
</g>
</svg>
