<?xml version="1.0" encoding="utf-8"?>
<!-- Generator: Adobe Illustrator 19.2.0, SVG Export Plug-In . SVG Version: 6.00 Build 0)  -->
<svg version="1.1" xmlns="http://www.w3.org/2000/svg" xmlns:xlink="http://www.w3.org/1999/xlink" x="0px" y="0px"
	 viewBox="0 0 64 64" style="enable-background:new 0 0 64 64;" xml:space="preserve">
<style type="text/css">
	.st0{fill:none;stroke:#1C1C1C;stroke-width:2;stroke-miterlimit:10;}
	.st1{fill:none;stroke:#1C1C1C;stroke-width:2;stroke-linecap:round;stroke-miterlimit:10;}
	.st2{fill:#1C1C1C;}
	.st3{fill:none;stroke:#1C1C1C;stroke-width:2;stroke-linecap:round;stroke-linejoin:round;stroke-miterlimit:10;}
	.st4{fill:none;stroke:#1C1C1C;stroke-width:2;stroke-linecap:round;stroke-miterlimit:10;stroke-dasharray:6;}
	.st5{fill:none;stroke:#1C1C1C;stroke-linecap:round;stroke-miterlimit:10;}
	.st6{fill:none;stroke:#1C1C1C;stroke-linecap:round;stroke-miterlimit:10;stroke-dasharray:4;}
	.st7{fill:none;stroke:#1C1C1C;stroke-width:1.5;stroke-linecap:round;stroke-miterlimit:10;}
	.st8{fill:none;stroke:#1C1C1C;stroke-width:4;stroke-linecap:round;stroke-miterlimit:10;}
	.st9{fill:none;stroke:#1C1C1C;stroke-width:5;stroke-linecap:round;stroke-miterlimit:10;}
	.st10{fill:none;stroke:#161616;stroke-width:2;stroke-linecap:round;stroke-linejoin:round;stroke-miterlimit:10;}
	.st11{fill:none;stroke:#000000;stroke-miterlimit:10;}
</style>
<g id="Designs">
	<g>
		<line class="st1" x1="9" y1="39" x2="5" y2="47"/>
		<line class="st1" x1="55" y1="39" x2="61" y2="47"/>
		<g>
			<path class="st2" d="M61,18c0.5,0,1,0.5,1,1v18c0,0.5-0.5,1-1,1H3c-0.5,0-1-0.5-1-1V19c0-0.5,0.5-1,1-1H61 M61,16H3
				c-1.6,0-3,1.4-3,3v18c0,1.6,1.4,3,3,3h58c1.6,0,3-1.4,3-3V19C64,17.4,62.6,16,61,16L61,16z"/>
		</g>
		<line class="st1" x1="21" y1="18" x2="21" y2="38"/>
		<line class="st1" x1="43" y1="18" x2="43" y2="38"/>
		<line class="st1" x1="21" y1="25" x2="42" y2="25"/>
		<line class="st1" x1="49" y1="21" x2="57" y2="21"/>
		<line class="st1" x1="49" y1="35" x2="57" y2="35"/>
		<line class="st1" x1="7" y1="21" x2="15" y2="21"/>
		<line class="st1" x1="7" y1="35" x2="15" y2="35"/>
	</g>
</g>
<g id="Guides">
</g>
</svg>
