<?xml version="1.0" encoding="utf-8"?>
<!-- Generator: Adobe Illustrator 19.2.0, SVG Export Plug-In . SVG Version: 6.00 Build 0)  -->
<svg version="1.1" xmlns="http://www.w3.org/2000/svg" xmlns:xlink="http://www.w3.org/1999/xlink" x="0px" y="0px"
	 viewBox="0 0 64 64" style="enable-background:new 0 0 64 64;" xml:space="preserve">
<style type="text/css">
	.st0{fill:none;stroke:#1C1C1C;stroke-width:2;stroke-linecap:round;stroke-miterlimit:10;}
	.st1{fill:#1C1C1C;}
	.st2{fill:none;stroke:#1C1C1C;stroke-width:2;stroke-linecap:round;stroke-linejoin:round;stroke-miterlimit:10;}
	.st3{fill:none;stroke:#1C1C1C;stroke-width:2;stroke-linecap:round;stroke-miterlimit:10;stroke-dasharray:2,11;}
	.st4{fill:none;stroke:#1C1C1C;stroke-width:2;stroke-miterlimit:10;}
</style>
<g id="Designs">
	<g>
		<path class="st0" d="M29,34h-7c-1.7,0-3,1-3,3"/>
		<path class="st0" d="M6,37c0-1.9,1.5-3,3-3h7c1.7,0,3,1.2,3,3v4"/>
		<line class="st0" x1="53" y1="41" x2="11" y2="41"/>
		<path class="st0" d="M32,47h29c1.1,0,2-1.9,2-3V30.9c0-0.5-0.4-0.9-0.9-0.9H59"/>
		<path class="st0" d="M6,37l0-18c0-1.3,0.8-2,2-2h48c2.1,0,2,2,2,2l0,18"/>
		<g>
			<path class="st0" d="M32,47H3c-1.1,0-2-1.8-2-2.9l0-13.2C1,30.4,1.4,30,1.9,30h3"/>
		</g>
		<path class="st0" d="M29,34c2.2,0,3,1.2,3,3v4"/>
		<path class="st0" d="M42,34h-7c-1.7,0-3,1-3,3"/>
		<path class="st0" d="M42,34c2.2,0,3,1.2,3,3v4"/>
		<path class="st0" d="M58,37c0-1.9-1.5-3-3-3h-7c-1.7,0-3,1.2-3,3"/>
	</g>
</g>
<g id="Guides">
</g>
</svg>
