<?xml version="1.0" encoding="utf-8"?>
<!-- Generator: Adobe Illustrator 19.2.0, SVG Export Plug-In . SVG Version: 6.00 Build 0)  -->
<svg version="1.1" xmlns="http://www.w3.org/2000/svg" xmlns:xlink="http://www.w3.org/1999/xlink" x="0px" y="0px"
	 viewBox="0 0 64 64" style="enable-background:new 0 0 64 64;" xml:space="preserve">
<style type="text/css">
	.st0{fill:none;stroke:#1C1C1C;stroke-width:2;stroke-linecap:round;stroke-miterlimit:10;}
	.st1{fill:#1C1C1C;}
	.st2{fill:none;stroke:#1C1C1C;stroke-width:2;stroke-linecap:round;stroke-linejoin:round;stroke-miterlimit:10;}
	.st3{fill:none;stroke:#1C1C1C;stroke-width:2;stroke-linecap:round;stroke-miterlimit:10;stroke-dasharray:2,11;}
	.st4{fill:none;stroke:#1C1C1C;stroke-width:2;stroke-miterlimit:10;}
</style>
<g id="Designs">
	<g>
		<path class="st0" d="M57,36c0-2-2-4-4-4H36c-2,0-4,2-4,4"/>
		<path class="st0" d="M7,36c0-2,2-4,4-4h17c2,0,4,2,4,4v4"/>
		<line class="st0" x1="53" y1="40" x2="11" y2="40"/>
		<path class="st0" d="M31,47h30c1.1,0,2-0.9,2-2v-15c0-0.5-0.4-0.9-0.9-0.9H58"/>
		<path class="st0" d="M7,36l0-17c0-1.3,0.8-2,2-2H55c1.4,0,2,1,2,2l0,17"/>
		<g>
			<path class="st0" d="M33,47H3c-1.1,0-2-0.8-2-1.9l0-15.2C1,29.4,1.4,29,1.9,29H6"/>
		</g>
	</g>
</g>
<g id="Guides">
</g>
</svg>
