<?xml version="1.0" encoding="utf-8"?>
<!-- Generator: Adobe Illustrator 19.1.0, SVG Export Plug-In . SVG Version: 6.00 Build 0)  -->
<svg version="1.1" xmlns="http://www.w3.org/2000/svg" xmlns:xlink="http://www.w3.org/1999/xlink" x="0px" y="0px"
	 viewBox="0 0 48 48" style="enable-background:new 0 0 48 48;" xml:space="preserve">
<style type="text/css">
	.st0{fill:#1C1C1C;}
	.st1{fill:none;}
	.st2{fill:#FFFFFF;}
</style>
<g id="Icons">
	<g>
		<path class="st0" d="M24,0C14.1,0,6,10.7,6,24c0,13.3,8.1,24,18,24s18-10.7,18-24C42,10.7,33.9,0,24,0z M24,46
			c-8.8,0-16-9.9-16-22C8,11.9,15.2,2,24,2c8.8,0,16,9.9,16,22C40,36.1,32.8,46,24,46z"/>
		<path class="st0" d="M24,5c-7.7,0-14,8.5-14,19c0,10.5,6.3,19,14,19c7.7,0,14-8.5,14-19C38,13.5,31.7,5,24,5z M24,41
			c-6.6,0-12-7.6-12-17c0-9.4,5.4-17,12-17s12,7.6,12,17C36,33.4,30.6,41,24,41z"/>
		<path class="st0" d="M17.6,16.2c-0.4-0.3-1.1-0.2-1.4,0.2c-0.3,0.4-0.2,1.1,0.2,1.4l8,6c0.2,0.1,0.4,0.2,0.6,0.2
			c0.3,0,0.6-0.1,0.8-0.4c0.3-0.4,0.2-1.1-0.2-1.4L17.6,16.2z"/>
		<path class="st0" d="M23.4,17.7c0.2,0.1,0.4,0.2,0.6,0.2c0.3,0,0.6-0.1,0.8-0.4c0.3-0.4,0.3-1.1-0.2-1.4l-5-4
			c-0.4-0.3-1.1-0.3-1.4,0.2c-0.3,0.4-0.3,1.1,0.2,1.4L23.4,17.7z"/>
	</g>
</g>
<g id="Doc-Label">
</g>
</svg>
