<?xml version="1.0" encoding="utf-8"?>
<!-- Generator: Adobe Illustrator 19.2.0, SVG Export Plug-In . SVG Version: 6.00 Build 0)  -->
<svg version="1.1" xmlns="http://www.w3.org/2000/svg" xmlns:xlink="http://www.w3.org/1999/xlink" x="0px" y="0px"
	 viewBox="0 0 64 64" style="enable-background:new 0 0 64 64;" xml:space="preserve">
<style type="text/css">
	.st0{fill:none;stroke:#1C1C1C;stroke-width:2;stroke-linecap:round;stroke-miterlimit:10;}
	.st1{fill:#1C1C1C;}
	.st2{fill:none;stroke:#1C1C1C;stroke-width:2;stroke-linecap:round;stroke-linejoin:round;stroke-miterlimit:10;}
	.st3{fill:none;stroke:#1C1C1C;stroke-width:2;stroke-linecap:round;stroke-miterlimit:10;stroke-dasharray:2,11;}
	.st4{fill:none;stroke:#1C1C1C;stroke-width:2;stroke-miterlimit:10;}
</style>
<g id="Designs">
	<g>
		<path class="st0" d="M63,24v33.5c0,0.8-0.7,1.5-1.5,1.5H2.5C1.7,59,1,58.3,1,57.5V24c0-0.6,0.5-1,1-1l60,0C62.6,23,63,23.4,63,24z
			"/>
		<line class="st0" x1="7" y1="27" x2="7" y2="55"/>
		<line class="st0" x1="57" y1="27" x2="57" y2="55"/>
		<line class="st0" x1="23" y1="27" x2="41" y2="27"/>
		<line class="st0" x1="9" y1="59" x2="9" y2="63"/>
		<line class="st0" x1="55" y1="59" x2="55" y2="63"/>
		<path class="st0" d="M25.2,23c-2.5-1.2-4.2-3.7-4.2-6.6c0-4.1,3.4-7.4,7.5-7.4s7.5,3.3,7.5,7.4c0,2.9-1.7,5.4-4.2,6.6"/>
		<path class="st2" d="M24.2,22.5c0,0-1-3,2.4-4.6c3.8-1.8,5.2-2.8,5.8-6.9"/>
		<path class="st2" d="M59,22.8V2.4C59,1.6,58.4,1,57.6,1H6.5C5.7,1,5,1.7,5,2.5V23"/>
		<g>
			<line class="st2" x1="40" y1="10" x2="40" y2="23"/>
			<line class="st2" x1="55" y1="10" x2="55" y2="23"/>
			<line class="st2" x1="49" y1="12" x2="55" y2="12"/>
			<line class="st2" x1="43" y1="12" x2="43" y2="13"/>
			<line class="st2" x1="46" y1="12" x2="46" y2="13"/>
			<line class="st2" x1="43" y1="18" x2="40" y2="18"/>
			<line class="st2" x1="52" y1="18" x2="52" y2="19"/>
			<line class="st2" x1="49" y1="18" x2="49" y2="19"/>
			<line class="st2" x1="46" y1="18" x2="46" y2="19"/>
		</g>
		<ellipse transform="matrix(0.3627 -0.9319 0.9319 0.3627 -3.9048 20.2522)" class="st2" cx="12.9" cy="13" rx="4.1" ry="4.1"/>
		<line class="st2" x1="11.4" y1="16.8" x2="9.2" y2="22.5"/>
		<line class="st2" x1="9.1" y1="11.5" x2="16.7" y2="14.5"/>
		<line class="st2" x1="14.3" y1="9.2" x2="15.1" y2="7.3"/>
	</g>
</g>
<g id="Guides">
</g>
</svg>
