<?xml version="1.0" encoding="utf-8"?>
<!-- Generator: Adobe Illustrator 19.2.0, SVG Export Plug-In . SVG Version: 6.00 Build 0)  -->
<svg version="1.1" xmlns="http://www.w3.org/2000/svg" xmlns:xlink="http://www.w3.org/1999/xlink" x="0px" y="0px"
	 viewBox="0 0 64 64" style="enable-background:new 0 0 64 64;" xml:space="preserve">
<style type="text/css">
	.st0{fill:none;stroke:#1C1C1C;stroke-width:2;stroke-miterlimit:10;}
	.st1{fill:none;stroke:#1C1C1C;stroke-width:2;stroke-linecap:round;stroke-miterlimit:10;}
	.st2{fill:#1C1C1C;}
	.st3{fill:none;stroke:#1C1C1C;stroke-width:2;stroke-linecap:round;stroke-linejoin:round;stroke-miterlimit:10;}
	.st4{fill:none;stroke:#1C1C1C;stroke-width:2;stroke-linecap:round;stroke-miterlimit:10;stroke-dasharray:6;}
	.st5{fill:none;stroke:#1C1C1C;stroke-linecap:round;stroke-miterlimit:10;}
	.st6{fill:none;stroke:#1C1C1C;stroke-linecap:round;stroke-miterlimit:10;stroke-dasharray:4;}
	.st7{fill:none;stroke:#1C1C1C;stroke-width:1.5;stroke-linecap:round;stroke-miterlimit:10;}
	.st8{fill:none;stroke:#1C1C1C;stroke-width:4;stroke-linecap:round;stroke-miterlimit:10;}
	.st9{fill:none;stroke:#1C1C1C;stroke-width:5;stroke-linecap:round;stroke-miterlimit:10;}
	.st10{fill:none;stroke:#161616;stroke-width:2;stroke-linecap:round;stroke-linejoin:round;stroke-miterlimit:10;}
	.st11{fill:none;stroke:#000000;stroke-miterlimit:10;}
</style>
<g id="Designs">
	<line class="st1" x1="9" y1="13" x2="54.7" y2="13"/>
	<circle class="st3" cx="19" cy="7" r="2"/>
	<line class="st1" x1="17" y1="17" x2="47" y2="17"/>
	<g>
		<line class="st1" x1="15" y1="60" x2="15" y2="63"/>
		<line class="st1" x1="49" y1="60" x2="49" y2="63"/>
	</g>
	<line class="st1" x1="31" y1="55" x2="33" y2="55"/>
	<path class="st1" d="M35.1,42.5c-1.8,2.7-4.8,4.5-8.1,4.5c-5.5,0-9.9-4.7-9.9-10.1s4.4-9.8,9.9-9.8c1.7,0,3.4,0.4,4.8,1.2"/>
	<path class="st1" d="M26.9,43c-3.3,0-5.9-2.9-5.9-6.1c0-3.2,2.6-5.9,5.9-5.9s5.9,2.6,5.9,5.9C32.8,40.1,30.2,43,26.9,43z"/>
	<g>
		<path class="st2" d="M52,2c0.8,0,2,1.1,2,2v52c0,1.1-0.9,2-2,2H12c-0.8,0-2-1.1-2-2V4c0-1.1,0.9-2,2-2H52 M52,0H12
			C9.8,0,8,1.8,8,4v52c0,1.9,2.1,4,4,4h40c2.2,0,4-1.8,4-4V4C56,2.1,53.9,0,52,0L52,0z"/>
	</g>
	<line class="st1" x1="36" y1="31" x2="47" y2="31"/>
	<line class="st1" x1="38" y1="35" x2="47" y2="35"/>
	<line class="st1" x1="39" y1="39" x2="47" y2="39"/>
	<line class="st1" x1="39" y1="5" x2="39" y2="9"/>
	<line class="st1" x1="43" y1="5" x2="43" y2="9"/>
	<line class="st1" x1="47" y1="5" x2="47" y2="9"/>
</g>
<g id="Guides">
</g>
</svg>
