<?xml version="1.0" encoding="utf-8"?>
<!-- Generator: Adobe Illustrator 19.2.0, SVG Export Plug-In . SVG Version: 6.00 Build 0)  -->
<svg version="1.1" xmlns="http://www.w3.org/2000/svg" xmlns:xlink="http://www.w3.org/1999/xlink" x="0px" y="0px"
	 viewBox="0 0 64 64" style="enable-background:new 0 0 64 64;" xml:space="preserve">
<style type="text/css">
	.st0{fill:none;stroke:#1C1C1C;stroke-width:2;stroke-miterlimit:10;}
	.st1{fill:none;stroke:#1C1C1C;stroke-width:2;stroke-linecap:round;stroke-miterlimit:10;}
	.st2{fill:#1C1C1C;}
	.st3{fill:none;stroke:#1C1C1C;stroke-width:2;stroke-linecap:round;stroke-linejoin:round;stroke-miterlimit:10;}
	.st4{fill:none;stroke:#1C1C1C;stroke-width:2;stroke-linecap:round;stroke-miterlimit:10;stroke-dasharray:6;}
	.st5{fill:none;stroke:#1C1C1C;stroke-linecap:round;stroke-miterlimit:10;}
	.st6{fill:none;stroke:#1C1C1C;stroke-linecap:round;stroke-miterlimit:10;stroke-dasharray:4;}
	.st7{fill:none;stroke:#1C1C1C;stroke-width:1.5;stroke-linecap:round;stroke-miterlimit:10;}
	.st8{fill:none;stroke:#1C1C1C;stroke-width:4;stroke-linecap:round;stroke-miterlimit:10;}
	.st9{fill:none;stroke:#1C1C1C;stroke-width:5;stroke-linecap:round;stroke-miterlimit:10;}
	.st10{fill:none;stroke:#161616;stroke-width:2;stroke-linecap:round;stroke-linejoin:round;stroke-miterlimit:10;}
	.st11{fill:none;stroke:#000000;stroke-miterlimit:10;}
</style>
<g id="Designs">
	<g>
		<line class="st1" x1="7" y1="47" x2="7" y2="41"/>
		<path class="st1" d="M63,63h-6.4c-0.9,0-1.6-0.9-1.6-2V45c0-1.1,0.7-2,1.6-2H63V63z"/>
		<line class="st1" x1="55" y1="47" x2="59" y2="47"/>
		<line class="st1" x1="55" y1="51" x2="59" y2="51"/>
		<line class="st1" x1="55" y1="55" x2="59" y2="55"/>
		<line class="st1" x1="55" y1="59" x2="59" y2="59"/>
		<path class="st1" d="M54,55h-6c-2.8,0-5-2.2-5-5V17c0-6.6-2.2-12-8.9-12H21c-2.2,0-4,1.8-4,4v6"/>
		<path class="st1" d="M13,16.9V9c0-4.4,3.6-8,8-8h13.1C43,1,47,8.2,47,17v32c0,1.1,0.9,2,2,2h2"/>
		<path class="st1" d="M9,17c-0.4,0-6,0-6,0c-1.1,0-2,0.9-2,2l0,32c0,1.1,0.9,2,2,2l20,0c1.1,0,2-0.9,2-2V37.8
			c0-5.7-1.5-12.2-5-15.8C20,22,15.7,16.8,9,17z"/>
		<circle class="st0" cx="6" cy="60" r="3"/>
		<circle class="st0" cx="20" cy="60" r="3"/>
		<circle class="st1" cx="7" cy="35" r="2"/>
		<path class="st1" d="M26,47c0,0,1.9,0,1.8,0h-0.2c2,0,3.4-1.6,3.4-3.7v-3.7c0-2-1.4-3.7-3.4-3.7h0.1h0.1c0.1,0-1.8,0-1.8,0"/>
	</g>
</g>
<g id="Guides">
</g>
</svg>
