<?xml version="1.0" encoding="utf-8"?>
<!-- Generator: Adobe Illustrator 19.2.0, SVG Export Plug-In . SVG Version: 6.00 Build 0)  -->
<svg version="1.1" xmlns="http://www.w3.org/2000/svg" xmlns:xlink="http://www.w3.org/1999/xlink" x="0px" y="0px"
	 viewBox="0 0 64 64" style="enable-background:new 0 0 64 64;" xml:space="preserve">
<style type="text/css">
	.st0{fill:none;stroke:#1C1C1C;stroke-width:2;stroke-miterlimit:10;}
	.st1{fill:none;stroke:#1C1C1C;stroke-width:2;stroke-linecap:round;stroke-miterlimit:10;}
	.st2{fill:#1C1C1C;}
	.st3{fill:none;stroke:#1C1C1C;stroke-width:2;stroke-linecap:round;stroke-linejoin:round;stroke-miterlimit:10;}
	.st4{fill:none;stroke:#1C1C1C;stroke-width:2;stroke-linecap:round;stroke-miterlimit:10;stroke-dasharray:6;}
	.st5{fill:none;stroke:#1C1C1C;stroke-linecap:round;stroke-miterlimit:10;}
	.st6{fill:none;stroke:#1C1C1C;stroke-linecap:round;stroke-miterlimit:10;stroke-dasharray:4;}
	.st7{fill:none;stroke:#1C1C1C;stroke-width:1.5;stroke-linecap:round;stroke-miterlimit:10;}
	.st8{fill:none;stroke:#1C1C1C;stroke-width:4;stroke-linecap:round;stroke-miterlimit:10;}
	.st9{fill:none;stroke:#1C1C1C;stroke-width:5;stroke-linecap:round;stroke-miterlimit:10;}
	.st10{fill:none;stroke:#161616;stroke-width:2;stroke-linecap:round;stroke-linejoin:round;stroke-miterlimit:10;}
	.st11{fill:none;stroke:#000000;stroke-miterlimit:10;}
</style>
<g id="Designs">
	<path class="st1" d="M42,37H22c-2.3,0-3-1.1-3-4l2-27c0-2,2.4-5,5-5h12c2.6,0,5,3.1,5,5l2,27C45,36,44.6,37,42,37z"/>
	<g>
		<path class="st2" d="M45,42c0.6,0,1,0.4,1,1v3c0,0.6-0.4,1-1,1H19c-0.6,0-1-0.4-1-1v-3c0-0.6,0.4-1,1-1H45 M45,40H19
			c-1.7,0-3,1.3-3,3v3c0,1.7,1.3,3,3,3h26c1.7,0,3-1.3,3-3v-3C48,41.3,46.7,40,45,40L45,40z"/>
	</g>
	<line class="st1" x1="32" y1="48" x2="32" y2="57"/>
	<line class="st1" x1="25" y1="57" x2="39" y2="57"/>
	<circle class="st1" cx="21" cy="59" r="4"/>
	<circle class="st1" cx="43" cy="59" r="4"/>
	<g>
		<line class="st1" x1="49" y1="27" x2="55" y2="27"/>
		<path class="st1" d="M53,27v6c0,0,0,4-4,4"/>
	</g>
	<g>
		<line class="st1" x1="15" y1="27" x2="9" y2="27"/>
		<path class="st1" d="M11,27v5c0,0,0,5,4,5"/>
	</g>
	<line class="st1" x1="32" y1="40" x2="32" y2="37"/>
</g>
<g id="Guides">
</g>
</svg>
