<?xml version="1.0" encoding="utf-8"?>
<!-- Generator: Adobe Illustrator 19.2.0, SVG Export Plug-In . SVG Version: 6.00 Build 0)  -->
<svg version="1.1" xmlns="http://www.w3.org/2000/svg" xmlns:xlink="http://www.w3.org/1999/xlink" x="0px" y="0px"
	 viewBox="0 0 64 64" style="enable-background:new 0 0 64 64;" xml:space="preserve">
<style type="text/css">
	.st0{fill:none;stroke:#1C1C1C;stroke-width:2;stroke-miterlimit:10;}
	.st1{fill:none;stroke:#1C1C1C;stroke-width:2;stroke-linecap:round;stroke-miterlimit:10;}
	.st2{fill:#1C1C1C;}
	.st3{fill:none;stroke:#1C1C1C;stroke-width:2;stroke-linecap:round;stroke-linejoin:round;stroke-miterlimit:10;}
	.st4{fill:none;stroke:#1C1C1C;stroke-width:2;stroke-linecap:round;stroke-miterlimit:10;stroke-dasharray:6;}
	.st5{fill:none;stroke:#1C1C1C;stroke-linecap:round;stroke-miterlimit:10;}
	.st6{fill:none;stroke:#1C1C1C;stroke-linecap:round;stroke-miterlimit:10;stroke-dasharray:4;}
	.st7{fill:none;stroke:#1C1C1C;stroke-width:1.5;stroke-linecap:round;stroke-miterlimit:10;}
	.st8{fill:none;stroke:#1C1C1C;stroke-width:4;stroke-linecap:round;stroke-miterlimit:10;}
	.st9{fill:none;stroke:#1C1C1C;stroke-width:5;stroke-linecap:round;stroke-miterlimit:10;}
	.st10{fill:none;stroke:#161616;stroke-width:2;stroke-linecap:round;stroke-linejoin:round;stroke-miterlimit:10;}
	.st11{fill:none;stroke:#000000;stroke-miterlimit:10;}
</style>
<g id="Designs">
	<g>
		<g>
			<line class="st1" x1="45" y1="32" x2="45" y2="9"/>
			<line class="st1" x1="19" y1="9" x2="19" y2="32"/>
			<line class="st1" x1="25" y1="9" x2="38.9" y2="9.1"/>
			<line class="st1" x1="25" y1="15" x2="39" y2="15"/>
			<path class="st1" d="M19,9L19,9c0-4.9,3.1-8,7-8h12c3.9,0,7,3.1,7,8v0"/>
			<line class="st1" x1="20" y1="23" x2="44" y2="23"/>
		</g>
		<line class="st1" x1="17" y1="38" x2="17" y2="63"/>
		<line class="st1" x1="47" y1="38" x2="47" y2="63"/>
		<line class="st1" x1="21" y1="47" x2="43" y2="47"/>
		<g>
			<path class="st2" d="M45.5,34c0.3,0,0.5,0.2,0.5,0.5v3.1c0,0.3-0.2,0.5-0.5,0.5H18.5c-0.3,0-0.5-0.2-0.5-0.5v-3.1
				c0-0.3,0.2-0.5,0.5-0.5H45.5 M45.5,32H18.5c-1.4,0-2.5,1.1-2.5,2.5v3.1c0,1.4,1.1,2.5,2.5,2.5h27.1c1.4,0,2.5-1.1,2.5-2.5v-3.1
				C48,33.1,46.9,32,45.5,32L45.5,32z"/>
		</g>
	</g>
</g>
<g id="Guides">
</g>
</svg>
