<?xml version="1.0" encoding="utf-8"?>
<!-- Generator: Adobe Illustrator 19.2.0, SVG Export Plug-In . SVG Version: 6.00 Build 0)  -->
<svg version="1.1" xmlns="http://www.w3.org/2000/svg" xmlns:xlink="http://www.w3.org/1999/xlink" x="0px" y="0px"
	 viewBox="0 0 64 64" style="enable-background:new 0 0 64 64;" xml:space="preserve">
<style type="text/css">
	.st0{fill:none;stroke:#1C1C1C;stroke-width:2;stroke-miterlimit:10;}
	.st1{fill:none;stroke:#1C1C1C;stroke-width:2;stroke-linecap:round;stroke-miterlimit:10;}
	.st2{fill:#1C1C1C;}
	.st3{fill:none;stroke:#1C1C1C;stroke-width:2;stroke-linecap:round;stroke-linejoin:round;stroke-miterlimit:10;}
	.st4{fill:none;stroke:#1C1C1C;stroke-width:2;stroke-linecap:round;stroke-miterlimit:10;stroke-dasharray:6;}
	.st5{fill:none;stroke:#1C1C1C;stroke-linecap:round;stroke-miterlimit:10;}
	.st6{fill:none;stroke:#1C1C1C;stroke-linecap:round;stroke-miterlimit:10;stroke-dasharray:4;}
	.st7{fill:none;stroke:#1C1C1C;stroke-width:1.5;stroke-linecap:round;stroke-miterlimit:10;}
	.st8{fill:none;stroke:#1C1C1C;stroke-width:4;stroke-linecap:round;stroke-miterlimit:10;}
	.st9{fill:none;stroke:#1C1C1C;stroke-width:5;stroke-linecap:round;stroke-miterlimit:10;}
	.st10{fill:none;stroke:#161616;stroke-width:2;stroke-linecap:round;stroke-linejoin:round;stroke-miterlimit:10;}
	.st11{fill:none;stroke:#000000;stroke-miterlimit:10;}
</style>
<g id="Designs">
	<g>
		<g>
			<path class="st2" d="M57,18c0.6,0,1,0.4,1,1v26c0,0.6-0.4,1-1,1H7c-0.6,0-1-0.4-1-1V19c0-0.6,0.4-1,1-1H57 M57,16H7
				c-1.7,0-3,1.3-3,3v26c0,1.7,1.3,3,3,3h50c1.7,0,3-1.3,3-3V19C60,17.3,58.7,16,57,16L57,16z"/>
		</g>
		<line class="st1" x1="63" y1="23" x2="59.1" y2="23"/>
		<line class="st1" x1="63" y1="29" x2="59.1" y2="29"/>
		<line class="st1" x1="63" y1="35.1" x2="59.1" y2="35.1"/>
		<line class="st1" x1="63" y1="41" x2="59.1" y2="41"/>
		<line class="st1" x1="4" y1="23" x2="1" y2="23"/>
		<line class="st1" x1="4" y1="29" x2="1" y2="29"/>
		<line class="st1" x1="4" y1="35" x2="1" y2="35"/>
		<line class="st1" x1="4" y1="41" x2="1" y2="41"/>
		<g>
			<path class="st2" d="M32,24c8,0,14,3.6,14,8s-6,8-14,8c-8.1,0-14-3.6-14-8S24,24,32,24 M32,22c-9.1,0-16,4.3-16,10s6.9,10,16,10
				s16-4.3,16-10S41.2,22,32,22L32,22z"/>
		</g>
		<line class="st1" x1="9" y1="23" x2="9" y2="42"/>
		<line class="st1" x1="55" y1="23" x2="55" y2="41"/>
	</g>
</g>
<g id="Guides">
</g>
</svg>
