<?xml version="1.0" encoding="utf-8"?>
<!-- Generator: Adobe Illustrator 19.2.0, SVG Export Plug-In . SVG Version: 6.00 Build 0)  -->
<svg version="1.1" xmlns="http://www.w3.org/2000/svg" xmlns:xlink="http://www.w3.org/1999/xlink" x="0px" y="0px"
	 viewBox="0 0 64 64" style="enable-background:new 0 0 64 64;" xml:space="preserve">
<style type="text/css">
	.st0{fill:none;stroke:#1C1C1C;stroke-width:2;stroke-miterlimit:10;}
	.st1{fill:none;stroke:#1C1C1C;stroke-width:2;stroke-linecap:round;stroke-miterlimit:10;}
	.st2{fill:#1C1C1C;}
	.st3{fill:none;stroke:#1C1C1C;stroke-width:2;stroke-linecap:round;stroke-linejoin:round;stroke-miterlimit:10;}
	.st4{fill:none;stroke:#1C1C1C;stroke-width:2;stroke-linecap:round;stroke-miterlimit:10;stroke-dasharray:6;}
	.st5{fill:none;stroke:#1C1C1C;stroke-linecap:round;stroke-miterlimit:10;}
	.st6{fill:none;stroke:#1C1C1C;stroke-linecap:round;stroke-miterlimit:10;stroke-dasharray:4;}
	.st7{fill:none;stroke:#1C1C1C;stroke-width:1.5;stroke-linecap:round;stroke-miterlimit:10;}
	.st8{fill:none;stroke:#1C1C1C;stroke-width:4;stroke-linecap:round;stroke-miterlimit:10;}
	.st9{fill:none;stroke:#1C1C1C;stroke-width:5;stroke-linecap:round;stroke-miterlimit:10;}
	.st10{fill:none;stroke:#161616;stroke-width:2;stroke-linecap:round;stroke-linejoin:round;stroke-miterlimit:10;}
	.st11{fill:none;stroke:#000000;stroke-miterlimit:10;}
</style>
<g id="Designs">
	<g>
		<path class="st1" d="M1,55V16c0-4,3-7,7-7h48c3.9,0,7,3,7,7v39"/>
		<line class="st1" x1="1" y1="55" x2="63" y2="55"/>
		<line class="st1" x1="2" y1="25" x2="21" y2="25"/>
		<path class="st1" d="M39,22v11c0,2.2-1.8,4-4,4H29c-2.2,0-4-1.8-4-4V22"/>
		<line class="st1" x1="30" y1="27" x2="34" y2="27"/>
		<line class="st1" x1="32" y1="31" x2="32" y2="27"/>
		<line class="st1" x1="2" y1="21" x2="62" y2="21"/>
		<line class="st1" x1="43" y1="25" x2="62" y2="25"/>
		<path class="st1" d="M9,51H6.1C5.5,51,5,50.5,5,49.9V47"/>
		<path class="st1" d="M55,51h2.9c0.6,0,1.1-0.5,1.1-1.1V47"/>
		<path class="st1" d="M55,29h2.9c0.6,0,1.1,0.5,1.1,1.1V33"/>
		<path class="st1" d="M9,29H6.1C5.5,29,5,29.5,5,30.1V33"/>
	</g>
</g>
<g id="Guides">
</g>
</svg>
