<?xml version="1.0" encoding="utf-8"?>
<!-- Generator: Adobe Illustrator 19.2.0, SVG Export Plug-In . SVG Version: 6.00 Build 0)  -->
<svg version="1.1" xmlns="http://www.w3.org/2000/svg" xmlns:xlink="http://www.w3.org/1999/xlink" x="0px" y="0px"
	 viewBox="0 0 64 64" style="enable-background:new 0 0 64 64;" xml:space="preserve">
<style type="text/css">
	.st0{fill:none;stroke:#1C1C1C;stroke-width:2;stroke-linecap:round;stroke-miterlimit:10;}
	.st1{fill:#1C1C1C;}
	.st2{fill:none;stroke:#1C1C1C;stroke-width:2;stroke-linecap:round;stroke-linejoin:round;stroke-miterlimit:10;}
	.st3{fill:none;stroke:#1C1C1C;stroke-width:2;stroke-linecap:round;stroke-miterlimit:10;stroke-dasharray:2,11;}
	.st4{fill:none;stroke:#1C1C1C;stroke-width:2;stroke-miterlimit:10;}
</style>
<g id="Designs">
	<g>
		<path class="st0" d="M59,11l-5,49c0,3-4.5,3-6,3H16c-1.3,0-6-0.1-6-3L5,11H59z"/>
		<line class="st0" x1="6" y1="16" x2="58" y2="16"/>
		<line class="st0" x1="5" y1="7" x2="59" y2="7"/>
		<path class="st0" d="M9,7V5c0-2.1,1.8-4,3.8-4h1.4C16.3,1,18,2.9,18,5v2"/>
		<path class="st0" d="M46,7V5c0-2.1,1.8-4,3.8-4h1.4C53.3,1,55,2.9,55,5v2"/>
		<line class="st0" x1="13" y1="22" x2="15" y2="22"/>
		<line class="st0" x1="22" y1="22" x2="24" y2="22"/>
		<line class="st0" x1="31" y1="22" x2="33" y2="22"/>
		<line class="st0" x1="40" y1="22" x2="42" y2="22"/>
		<line class="st0" x1="49" y1="22" x2="51" y2="22"/>
		<line class="st0" x1="17" y1="29" x2="19" y2="29"/>
		<line class="st0" x1="26" y1="29" x2="28" y2="29"/>
		<line class="st0" x1="35" y1="29" x2="37" y2="29"/>
		<line class="st0" x1="44" y1="29" x2="46" y2="29"/>
		<line class="st0" x1="13" y1="36" x2="15" y2="36"/>
		<line class="st0" x1="22" y1="36" x2="24" y2="36"/>
		<line class="st0" x1="31" y1="36" x2="33" y2="36"/>
		<line class="st0" x1="40" y1="36" x2="42" y2="36"/>
		<line class="st0" x1="49" y1="36" x2="51" y2="36"/>
		<line class="st0" x1="17" y1="43" x2="19" y2="43"/>
		<line class="st0" x1="26" y1="43" x2="28" y2="43"/>
		<line class="st0" x1="35" y1="43" x2="37" y2="43"/>
		<line class="st0" x1="44" y1="43" x2="46" y2="43"/>
		<line class="st0" x1="13" y1="50" x2="15" y2="50"/>
		<line class="st0" x1="22" y1="50" x2="24" y2="50"/>
		<line class="st0" x1="31" y1="50" x2="33" y2="50"/>
		<line class="st0" x1="40" y1="50" x2="42" y2="50"/>
		<line class="st0" x1="49" y1="50" x2="51" y2="50"/>
		<line class="st0" x1="17" y1="57" x2="19" y2="57"/>
		<line class="st0" x1="26" y1="57" x2="28" y2="57"/>
		<line class="st0" x1="35" y1="57" x2="37" y2="57"/>
		<line class="st0" x1="44" y1="57" x2="46" y2="57"/>
	</g>
</g>
<g id="Guides">
</g>
</svg>
