<?xml version="1.0" encoding="utf-8"?>
<!-- Generator: Adobe Illustrator 19.2.0, SVG Export Plug-In . SVG Version: 6.00 Build 0)  -->
<svg version="1.1" xmlns="http://www.w3.org/2000/svg" xmlns:xlink="http://www.w3.org/1999/xlink" x="0px" y="0px"
	 viewBox="0 0 64 64" style="enable-background:new 0 0 64 64;" xml:space="preserve">
<style type="text/css">
	.st0{fill:none;stroke:#1C1C1C;stroke-width:2;stroke-miterlimit:10;}
	.st1{fill:none;stroke:#1C1C1C;stroke-width:2;stroke-linecap:round;stroke-miterlimit:10;}
	.st2{fill:#1C1C1C;}
	.st3{fill:none;stroke:#1C1C1C;stroke-width:2;stroke-linecap:round;stroke-linejoin:round;stroke-miterlimit:10;}
	.st4{fill:none;stroke:#1C1C1C;stroke-width:2;stroke-linecap:round;stroke-miterlimit:10;stroke-dasharray:6;}
	.st5{fill:none;stroke:#1C1C1C;stroke-linecap:round;stroke-miterlimit:10;}
	.st6{fill:none;stroke:#1C1C1C;stroke-linecap:round;stroke-miterlimit:10;stroke-dasharray:4;}
	.st7{fill:none;stroke:#1C1C1C;stroke-width:1.5;stroke-linecap:round;stroke-miterlimit:10;}
	.st8{fill:none;stroke:#1C1C1C;stroke-width:4;stroke-linecap:round;stroke-miterlimit:10;}
	.st9{fill:none;stroke:#1C1C1C;stroke-width:5;stroke-linecap:round;stroke-miterlimit:10;}
	.st10{fill:none;stroke:#161616;stroke-width:2;stroke-linecap:round;stroke-linejoin:round;stroke-miterlimit:10;}
	.st11{fill:none;stroke:#000000;stroke-miterlimit:10;}
</style>
<g id="Designs">
	<g>
		<circle class="st1" cx="41" cy="19" r="2"/>
		<g>
			<line class="st1" x1="7" y1="52" x2="7" y2="55"/>
			<line class="st1" x1="57" y1="52" x2="57" y2="55"/>
		</g>
		<g>
			<path class="st2" d="M60.9,10c0.6,0,1.1,0.5,1.1,1.1V49c0,0.7-0.3,1-1,1H3c-0.7,0-1-0.3-1-1V11.1C2,10.5,2.5,10,3.1,10H60.9
				 M60.9,8H3.1C1.4,8,0,9.4,0,11.1V49c0,1.7,1.2,3,3,3h58c1.8,0,3-1.2,3-3V11.1C64,9.4,62.6,8,60.9,8L60.9,8z"/>
		</g>
		<line class="st1" x1="32" y1="9" x2="32" y2="51"/>
		<line class="st1" x1="7" y1="15" x2="7" y2="45"/>
		<line class="st1" x1="57" y1="15" x2="57" y2="45"/>
		<circle class="st1" cx="23" cy="19" r="2"/>
	</g>
</g>
<g id="Guides">
</g>
</svg>
