<?xml version="1.0" encoding="utf-8"?>
<!-- Generator: Adobe Illustrator 19.2.0, SVG Export Plug-In . SVG Version: 6.00 Build 0)  -->
<svg version="1.1" xmlns="http://www.w3.org/2000/svg" xmlns:xlink="http://www.w3.org/1999/xlink" x="0px" y="0px"
	 viewBox="0 0 64 64" style="enable-background:new 0 0 64 64;" xml:space="preserve">
<style type="text/css">
	.st0{fill:none;stroke:#1C1C1C;stroke-width:2;stroke-miterlimit:10;}
	.st1{fill:none;stroke:#1C1C1C;stroke-width:2;stroke-linecap:round;stroke-miterlimit:10;}
	.st2{fill:#1C1C1C;}
	.st3{fill:none;stroke:#1C1C1C;stroke-width:2;stroke-linecap:round;stroke-linejoin:round;stroke-miterlimit:10;}
	.st4{fill:none;stroke:#1C1C1C;stroke-width:2;stroke-linecap:round;stroke-miterlimit:10;stroke-dasharray:6;}
	.st5{fill:none;stroke:#1C1C1C;stroke-linecap:round;stroke-miterlimit:10;}
	.st6{fill:none;stroke:#1C1C1C;stroke-linecap:round;stroke-miterlimit:10;stroke-dasharray:4;}
	.st7{fill:none;stroke:#1C1C1C;stroke-width:1.5;stroke-linecap:round;stroke-miterlimit:10;}
	.st8{fill:none;stroke:#1C1C1C;stroke-width:4;stroke-linecap:round;stroke-miterlimit:10;}
	.st9{fill:none;stroke:#1C1C1C;stroke-width:5;stroke-linecap:round;stroke-miterlimit:10;}
	.st10{fill:none;stroke:#161616;stroke-width:2;stroke-linecap:round;stroke-linejoin:round;stroke-miterlimit:10;}
	.st11{fill:none;stroke:#000000;stroke-miterlimit:10;}
</style>
<g id="Designs">
	<g>
		<line class="st1" x1="9" y1="15" x2="55" y2="15"/>
		<g>
			<path class="st2" d="M46,6c1.1,0,2,0.9,2,2s-0.9,2-2,2s-2-0.9-2-2S44.9,6,46,6 M46,4c-2.2,0-4,1.8-4,4s1.8,4,4,4s4-1.8,4-4
				S48.2,4,46,4L46,4z"/>
		</g>
		<g>
			<path class="st2" d="M36,6c1.1,0,2,0.9,2,2s-0.9,2-2,2s-2-0.9-2-2S34.9,6,36,6 M36,4c-2.2,0-4,1.8-4,4s1.8,4,4,4s4-1.8,4-4
				S38.2,4,36,4L36,4z"/>
		</g>
		<path class="st1" d="M45.4,44c-0.5,0.7-1,1.4-1.5,2c-0.5,0.5-1,1.1-1.6,1.5c-3.7,3.1-9.6,4.4-14.6,2.9c-8-2.4-12.5-10.7-10.2-18.7
			s10.7-12.5,18.7-10.1c4.4,1.3,7.6,4.4,9.3,8.3"/>
		<path class="st1" d="M43.1,38.7v-3.4c0-0.7,0.6-1.3,1.3-1.3h1.3c0.7,0,1.3,0.6,1.3,1.3v3.4c0,0.7-0.6,1.3-1.3,1.3h-1.3
			C43.7,40,43.1,39.4,43.1,38.7z"/>
		<path class="st1" d="M27,36c0,1.7-1.3,3-3,3s-3-1.3-3-3"/>
		<path class="st1" d="M33,36c0,1.7-1.3,3-3,3s-3-1.3-3-3"/>
		<path class="st1" d="M39,36c0,1.7-1.3,3-3,3s-3-1.3-3-3"/>
		<g>
			<line class="st1" x1="15" y1="60" x2="15" y2="63"/>
			<line class="st1" x1="49" y1="60" x2="49" y2="63"/>
		</g>
		<g>
			<path class="st2" d="M52,2c0.8,0,2,1.1,2,2v52c0,1.1-0.9,2-2,2H12c-0.8,0-2-1.1-2-2V4c0-1.1,0.9-2,2-2H52 M52,0H12
				C9.8,0,8,1.7,8,4v52c0,1.9,2.1,4,4,4h40c2.2,0,4-1.8,4-4V4C56,2,53.9,0,52,0L52,0z"/>
		</g>
	</g>
</g>
<g id="Guides">
</g>
</svg>
