<?xml version="1.0" encoding="utf-8"?>
<!-- Generator: Adobe Illustrator 19.2.0, SVG Export Plug-In . SVG Version: 6.00 Build 0)  -->
<svg version="1.1" xmlns="http://www.w3.org/2000/svg" xmlns:xlink="http://www.w3.org/1999/xlink" x="0px" y="0px"
	 viewBox="0 0 64 64" style="enable-background:new 0 0 64 64;" xml:space="preserve">
<style type="text/css">
	.st0{fill:none;stroke:#1C1C1C;stroke-width:2;stroke-linecap:round;stroke-miterlimit:10;}
	.st1{fill:#1C1C1C;}
	.st2{fill:none;stroke:#1C1C1C;stroke-width:2;stroke-linecap:round;stroke-linejoin:round;stroke-miterlimit:10;}
	.st3{fill:none;stroke:#1C1C1C;stroke-width:2;stroke-linecap:round;stroke-miterlimit:10;stroke-dasharray:2,11;}
	.st4{fill:none;stroke:#1C1C1C;stroke-width:2;stroke-miterlimit:10;}
</style>
<g id="Designs">
	<g>
		<g>
			<path class="st0" d="M37.6,36.6L15,61c-2.3,2.5-6.7,2.4-9-0.1L6.1,61c-2.3-2.5-2.4-6.6-0.1-9l23.5-24.6c0,0,0.6-0.3,0-2"/>
			<line class="st0" x1="13.2" y1="54" x2="11.2" y2="56"/>
		</g>
		<g>
			<path class="st2" d="M33,6c-5.1,5-5.6,11.9-3.5,19.4"/>
			<path class="st2" d="M57.9,31.5L57.9,31.5C53,36.8,47.4,38.2,40,36c0,0-1.3-0.3-2.4,0.6"/>
			<path class="st2" d="M41.7,12.1l10.2,11.2l9.4-9.8c0.2-0.2,0.3-0.3,0.4-0.1c0.9,2,3.5,10.4-3.7,18.1"/>
			<path class="st0" d="M41.7,12.1l9.5-10c0,0-0.1-0.3-0.2-0.3c-0.8-0.5-11.1-3-18,4.2"/>
		</g>
		<path class="st2" d="M48,41l10.4,10.6c0.8,0.9,0.8,2.3,0,3.1l-7.2,7.7c-0.8,0.8-2.1,0.9-2.9,0L34,47"/>
		<path class="st2" d="M21,29L9.3,16.2c-0.2-0.2-0.5-0.2-0.8,0l-2.1,2.3c-0.3,0.3-0.7,0.2-0.9-0.2L1,5.1C1,4.9,1,4.7,1.2,4.5
			l3.2-3.3C4.5,1,4.7,1,4.9,1l12.5,4.7c0.4,0.1,0.5,0.6,0.2,0.9l-2.1,2.2c-0.2,0.2-0.2,0.6,0,0.8L24,18"/>
		<line class="st2" x1="39" y1="18" x2="36.6" y2="20.2"/>
		<line class="st2" x1="42" y1="22" x2="39.6" y2="24.3"/>
		<line class="st2" x1="45.5" y1="25.7" x2="43" y2="28"/>
	</g>
</g>
<g id="Guides">
</g>
</svg>
