<?xml version="1.0" encoding="utf-8"?>
<!-- Generator: Adobe Illustrator 19.2.0, SVG Export Plug-In . SVG Version: 6.00 Build 0)  -->
<svg version="1.1" xmlns="http://www.w3.org/2000/svg" xmlns:xlink="http://www.w3.org/1999/xlink" x="0px" y="0px"
	 viewBox="0 0 64 64" style="enable-background:new 0 0 64 64;" xml:space="preserve">
<style type="text/css">
	.st0{fill:none;stroke:#1C1C1C;stroke-width:2;stroke-linecap:round;stroke-miterlimit:10;}
	.st1{fill:#1C1C1C;}
	.st2{fill:none;stroke:#1C1C1C;stroke-width:2;stroke-linecap:round;stroke-linejoin:round;stroke-miterlimit:10;}
	.st3{fill:none;stroke:#1C1C1C;stroke-width:2;stroke-linecap:round;stroke-miterlimit:10;stroke-dasharray:2,11;}
	.st4{fill:none;stroke:#1C1C1C;stroke-width:2;stroke-miterlimit:10;}
</style>
<g id="Designs">
	<g>
		<path class="st0" d="M55,54.6c0,0.2-0.2,0.4-0.4,0.4H9.4C9.2,55,9,54.8,9,54.6V1.4C9,1.2,9.2,1,9.4,1h45.1C54.8,1,55,1.2,55,1.4
			V54.6z"/>
		<circle class="st0" cx="15" cy="60" r="3"/>
		<circle class="st0" cx="49" cy="60" r="3"/>
		<line class="st0" x1="13" y1="6" x2="51" y2="6"/>
		<line class="st0" x1="49" y1="17" x2="51" y2="17"/>
		<line class="st0" x1="13" y1="33" x2="51" y2="33"/>
		<g>
			<g>
				<g>
					<path class="st0" d="M23,33l8.4-8.3c0,0,0.7-0.6,0.4-1.3"/>
					<line class="st0" x1="35.1" y1="28.3" x2="30" y2="33"/>
				</g>
				<g>
					<path class="st2" d="M33.4,15.2L33.4,15.2c-2.2,2.2-2.8,5.3-1.8,8"/>
					<path class="st2" d="M44.3,26L44.3,26c-2.2,2.2-5.4,2.8-8.1,1.8c0,0-0.6-0.2-1.3,0.4"/>
					<path class="st2" d="M36.9,18.2l4.6,4.6l4.1-4.1c0.1-0.1,0.1-0.1,0.2,0c0.4,0.8,1.7,4.4-1.5,7.5"/>
					<path class="st0" d="M36.9,18.2l4.2-4.2c0,0-0.1-0.1-0.1-0.1c-0.4-0.2-4.4-1.7-7.6,1.5"/>
				</g>
			</g>
			<line class="st2" x1="41" y1="31" x2="43" y2="33"/>
			<path class="st2" d="M27,24l-4.7-4.5c-0.1-0.1-0.2-0.1-0.3,0l-1,1c-0.1,0.1-0.3,0.1-0.4-0.1l-2-5.6c0-0.1,0-0.2,0.1-0.2l1.4-1.4
				c0.1-0.1,0.2-0.1,0.2-0.1l5.6,2c0.2,0.1,0.2,0.3,0.1,0.4l-0.9,0.9c-0.1,0.1-0.1,0.2,0,0.3l3,2.8"/>
		</g>
		<line class="st0" x1="13" y1="17" x2="15" y2="17"/>
	</g>
</g>
<g id="Guides">
</g>
</svg>
