<?xml version="1.0" encoding="utf-8"?>
<!-- Generator: Adobe Illustrator 19.2.0, SVG Export Plug-In . SVG Version: 6.00 Build 0)  -->
<svg version="1.1" xmlns="http://www.w3.org/2000/svg" xmlns:xlink="http://www.w3.org/1999/xlink" x="0px" y="0px"
	 viewBox="0 0 64 64" style="enable-background:new 0 0 64 64;" xml:space="preserve">
<style type="text/css">
	.st0{fill:none;stroke:#1C1C1C;stroke-width:2;stroke-linecap:round;stroke-miterlimit:10;}
	.st1{fill:#1C1C1C;}
	.st2{fill:none;stroke:#1C1C1C;stroke-width:2;stroke-linecap:round;stroke-linejoin:round;stroke-miterlimit:10;}
	.st3{fill:none;stroke:#1C1C1C;stroke-width:2;stroke-linecap:round;stroke-miterlimit:10;stroke-dasharray:2,11;}
	.st4{fill:none;stroke:#1C1C1C;stroke-width:2;stroke-miterlimit:10;}
</style>
<g id="Designs">
	<g>
		<g>
			<g>
				<path class="st2" d="M11,1H9c0,0,10.1,24.1,10,24l0,0c0.1,0.1,10-24,10-24h2"/>
				<polyline class="st2" points="19,16 19,3 21,3 				"/>
				<line class="st2" x1="19" y1="39" x2="19" y2="23"/>
			</g>
			<path class="st2" d="M19,63L19,63c-1.1,0-2-0.9-2-2V41c0-1.1,0.9-2,2-2h0c1.1,0,2,0.9,2,2v20C21,62.1,20.1,63,19,63z"/>
		</g>
		<g>
			<g>
				<line class="st2" x1="46" y1="39" x2="46" y2="15"/>
			</g>
			<path class="st2" d="M48,61c0,1.1-0.9,2-2,2h0c-1.1,0-2-0.9-2-2V41c0-1.1,0.9-2,2-2h0c1.1,0,2,0.9,2,2V61z"/>
		</g>
		<path class="st2" d="M42,25h-5c0,0,0-15,9-24c0,0,9,10,9,24h-5"/>
	</g>
</g>
<g id="Guides">
</g>
</svg>
