<?xml version="1.0" encoding="utf-8"?>
<!-- Generator: Adobe Illustrator 19.2.0, SVG Export Plug-In . SVG Version: 6.00 Build 0)  -->
<svg version="1.1" xmlns="http://www.w3.org/2000/svg" xmlns:xlink="http://www.w3.org/1999/xlink" x="0px" y="0px"
	 viewBox="0 0 64 64" style="enable-background:new 0 0 64 64;" xml:space="preserve">
<style type="text/css">
	.st0{fill:none;stroke:#1C1C1C;stroke-width:2;stroke-linecap:round;stroke-miterlimit:10;}
	.st1{fill:#1C1C1C;}
	.st2{fill:none;stroke:#1C1C1C;stroke-width:2;stroke-linecap:round;stroke-linejoin:round;stroke-miterlimit:10;}
	.st3{fill:none;stroke:#1C1C1C;stroke-width:2;stroke-linecap:round;stroke-miterlimit:10;stroke-dasharray:2,11;}
	.st4{fill:none;stroke:#1C1C1C;stroke-width:2;stroke-miterlimit:10;}
</style>
<g id="Designs">
	<g>
		<line class="st2" x1="13" y1="38" x2="51" y2="38"/>
		<line class="st2" x1="9" y1="55" x2="55" y2="55"/>
		<path class="st2" d="M55,63V9c0,0-24.8,0-46,0v54"/>
		<line class="st2" x1="10" y1="21" x2="54" y2="21"/>
		<path class="st2" d="M9,9C9,9,29.6-2.1,55,9"/>
		<line class="st2" x1="16" y1="9" x2="16" y2="20"/>
		<line class="st2" x1="24" y1="9" x2="24" y2="20"/>
		<line class="st2" x1="32" y1="9" x2="32" y2="20"/>
		<line class="st2" x1="40" y1="9" x2="40" y2="20"/>
		<line class="st2" x1="9" y1="1" x2="9" y2="9"/>
		<line class="st2" x1="55" y1="1" x2="55" y2="9"/>
		<line class="st2" x1="48" y1="10" x2="48" y2="21"/>
	</g>
</g>
<g id="Guides">
</g>
</svg>
