<svg id="Designs" xmlns="http://www.w3.org/2000/svg" viewBox="0 0 64 64"><defs><style>.cls-1{fill:none;stroke:#1c1c1c;stroke-linecap:round;stroke-miterlimit:10;stroke-width:2px;}.cls-2{fill:#1c1c1c;}</style></defs><title>2016_Movinga-Line-Icons-64x64-v2</title><path class="cls-1" d="M39,11H59.9A3.11,3.11,0,0,1,63,14.1V55.9A3.11,3.11,0,0,1,59.9,59H4.1A3.11,3.11,0,0,1,1,55.9V14.1A3.11,3.11,0,0,1,4.1,11H25"/><line class="cls-1" x1="32.06" y1="10.06" x2="42" y2="1.06"/><line class="cls-1" x1="32" y1="10.13" x2="23.17" y2="3.33"/><line class="cls-1" x1="9" y1="60" x2="9" y2="63"/><line class="cls-1" x1="55" y1="60" x2="55" y2="63"/><path class="cls-2" d="M53,18a2.82,2.82,0,0,1,3,3V43a2.82,2.82,0,0,1-3,3H11a2.82,2.82,0,0,1-3-3V21a2.82,2.82,0,0,1,3-3H53m0-2H11a4.78,4.78,0,0,0-5,5V43a4.78,4.78,0,0,0,5,5H53a4.78,4.78,0,0,0,5-5V21a4.78,4.78,0,0,0-5-5h0Z"/><line class="cls-1" x1="44" y1="53" x2="47" y2="53"/><line class="cls-1" x1="52" y1="53" x2="55" y2="53"/><circle class="cls-1" cx="11" cy="53" r="2"/><line class="cls-1" x1="44" y1="42.04" x2="48" y2="38.04"/><line class="cls-1" x1="39.03" y1="40.95" x2="47" y2="33.04"/></svg>