<?xml version="1.0" encoding="utf-8"?>
<!-- Generator: Adobe Illustrator 19.2.0, SVG Export Plug-In . SVG Version: 6.00 Build 0)  -->
<svg version="1.1" xmlns="http://www.w3.org/2000/svg" xmlns:xlink="http://www.w3.org/1999/xlink" x="0px" y="0px"
	 viewBox="0 0 64 64" style="enable-background:new 0 0 64 64;" xml:space="preserve">
<style type="text/css">
	.st0{fill:none;stroke:#1C1C1C;stroke-width:2;stroke-miterlimit:10;}
	.st1{fill:none;stroke:#1C1C1C;stroke-width:2;stroke-linecap:round;stroke-miterlimit:10;}
	.st2{fill:#1C1C1C;}
	.st3{fill:none;stroke:#1C1C1C;stroke-width:2;stroke-linecap:round;stroke-linejoin:round;stroke-miterlimit:10;}
	.st4{fill:none;stroke:#1C1C1C;stroke-width:2;stroke-linecap:round;stroke-miterlimit:10;stroke-dasharray:6;}
	.st5{fill:none;stroke:#1C1C1C;stroke-linecap:round;stroke-miterlimit:10;}
	.st6{fill:none;stroke:#1C1C1C;stroke-linecap:round;stroke-miterlimit:10;stroke-dasharray:4;}
	.st7{fill:none;stroke:#1C1C1C;stroke-width:1.5;stroke-linecap:round;stroke-miterlimit:10;}
	.st8{fill:none;stroke:#1C1C1C;stroke-width:4;stroke-linecap:round;stroke-miterlimit:10;}
	.st9{fill:none;stroke:#1C1C1C;stroke-width:5;stroke-linecap:round;stroke-miterlimit:10;}
	.st10{fill:none;stroke:#161616;stroke-width:2;stroke-linecap:round;stroke-linejoin:round;stroke-miterlimit:10;}
	.st11{fill:none;stroke:#000000;stroke-miterlimit:10;}
</style>
<g id="Designs">
	<g>
		<line class="st1" x1="9" y1="15" x2="54.8" y2="15"/>
		<circle class="st3" cx="19" cy="7" r="2"/>
		<g>
			<line class="st1" x1="15" y1="60" x2="15" y2="63"/>
			<line class="st1" x1="49" y1="60" x2="49" y2="63"/>
		</g>
		<g>
			<path class="st2" d="M52,2c1,0,2,1,2,2v52c0,1-1,2-2,2H12c-1,0-2-1-2-2V4c0-1,1-2,2-2H52 M52,0H12C9.9,0,8,1.9,8,4v52
				c0,2.1,1.9,4,4,4h40c2.1,0,4-1.9,4-4V4C56,1.9,54.1,0,52,0L52,0z"/>
		</g>
		<line class="st1" x1="45" y1="27" x2="45" y2="39"/>
		<line class="st1" x1="33" y1="7" x2="37" y2="7"/>
		<line class="st1" x1="43" y1="6" x2="43" y2="9"/>
		<line class="st1" x1="47" y1="6" x2="47" y2="9"/>
		<path class="st1" d="M45.9,47H18.1c-1.7,0-3.1-1.4-3.1-3.1V24.1c0-1.7,1.4-3.1,3.1-3.1h27.7c1.7,0,3.1,1.4,3.1,3.1v19.7
			C49,45.6,47.6,47,45.9,47z"/>
	</g>
</g>
<g id="Guides">
</g>
</svg>
