<?xml version="1.0" encoding="utf-8"?>
<!-- Generator: Adobe Illustrator 19.2.0, SVG Export Plug-In . SVG Version: 6.00 Build 0)  -->
<svg version="1.1" xmlns="http://www.w3.org/2000/svg" xmlns:xlink="http://www.w3.org/1999/xlink" x="0px" y="0px"
	 viewBox="0 0 64 64" style="enable-background:new 0 0 64 64;" xml:space="preserve">
<style type="text/css">
	.st0{fill:none;stroke:#1C1C1C;stroke-width:2;stroke-linecap:round;stroke-miterlimit:10;}
	.st1{fill:#1C1C1C;}
	.st2{fill:none;stroke:#1C1C1C;stroke-width:2;stroke-linecap:round;stroke-linejoin:round;stroke-miterlimit:10;}
	.st3{fill:none;stroke:#1C1C1C;stroke-width:2;stroke-linecap:round;stroke-miterlimit:10;stroke-dasharray:2,11;}
	.st4{fill:none;stroke:#1C1C1C;stroke-width:2;stroke-miterlimit:10;}
</style>
<g id="Designs">
	<g>
		<polyline class="st2" points="9,55 32,19 55,55 		"/>
		<polyline class="st2" points="23,33 32,31 41,33 		"/>
		<polyline class="st2" points="20,38 32,36 44,38 55,15 		"/>
		<line class="st2" x1="32" y1="31" x2="32" y2="36"/>
		<line class="st2" x1="27" y1="33" x2="27" y2="36"/>
		<line class="st2" x1="37" y1="33" x2="37" y2="36"/>
		<polygon class="st2" points="55,9 32,12 9,9 1,13 32,17 63,13 		"/>
		<line class="st2" x1="9" y1="15" x2="20" y2="38"/>
		<line class="st2" x1="32" y1="17" x2="32" y2="12"/>
		<line class="st2" x1="25" y1="16" x2="26" y2="12"/>
		<line class="st2" x1="39" y1="16" x2="38" y2="12"/>
		<line class="st2" x1="18" y1="15" x2="20" y2="11"/>
		<line class="st2" x1="46" y1="15" x2="44" y2="11"/>
		<line class="st2" x1="55" y1="14" x2="51" y2="10"/>
		<line class="st2" x1="9" y1="14" x2="13" y2="10"/>
	</g>
</g>
<g id="Guides">
</g>
</svg>
